<svg xmlns="http://www.w3.org/2000/svg" width="67" height="66" viewBox="0 0 67 66"><g><g opacity=".3"><g opacity=".3"><path fill="#242424" d="M50.354 63.46v-32.5h13.63v32.5zm-35.645 0h-4.193v-6.29h4.193zm10.484 0H21v-6.29h4.194zm10.484 0h-4.194v-6.29h4.194zM4.536 44.589H39.87v18.87h-2.096v-8.386h-8.387v8.387H27.29v-8.387h-8.387v8.387h-2.097v-8.387H8.419v8.387H7.23zm3.883-8.387v2.097H3.637l-.3-2.097zm2.916-4.194h23.523l.525 2.097H10.81zm18.052-14.677h2.096v12.58h-2.096zm2.096-4.194h14.678v2.097H31.483zM53.5 19.394v3.179h-3.146v-2.34zm7.338 5.276h3.145v4.193h-3.145zm-5.242-2.097v-3.738l3.145-.839v4.577zm0 2.097h3.145v4.193h-3.145zm-5.242 0H53.5v4.193h-3.146zm-12.81 9.435l-1.048-4.194H33.58v-12.58h14.678V63.46h-6.29V34.105zm-1.867 6.29h4.193v2.097h-4.193zm-6.29 0h4.193v2.097h-4.193zm-6.29 0h4.193v2.097h-4.194zm-6.291 0H21v2.097h-4.194zM14.709 38.3h-4.193v-2.097h4.193zm6.29 0h-4.193v-2.097H21zm6.29 0h-4.193v-2.097h4.194zm6.291 0h-4.193v-2.097h4.193zm6.29 0h-4.193v-2.097h4.193zm-29.354 2.096h4.193v2.097h-4.193zm-6.28 2.097l-.3-2.097H8.42v2.097zm59.747-19.92h-3.145v-5.134l3.145-.84zm-13.629-4.51v-2.828h-2.096v-4.193h-4.194V3.7h-2.097v7.34H39.87V.557h-2.096V11.04h-2.097V3.7H33.58v7.34h-4.193v4.193H27.29v14.677H9.697L8.65 34.105H.919L5.114 63.46H1.08v2.097h65V13.869z"/></g><g opacity=".3"><path fill="#242424" d="M8.422 46.685h2.097v2.098H8.422z"/></g><g opacity=".3"><path fill="#242424" d="M14.709 46.685h2.098v2.098h-2.098z"/></g><g opacity=".3"><path fill="#242424" d="M21 46.685h2.097v2.098h-2.098z"/></g><g opacity=".3"><path fill="#242424" d="M27.29 46.685h2.097v2.098H27.29z"/></g><g opacity=".3"><path fill="#242424" d="M33.58 46.685h2.097v2.098H33.58z"/></g><g opacity=".3"><path fill="#242424" d="M8.422 50.879h2.097v2.097H8.422z"/></g><g opacity=".3"><path fill="#242424" d="M14.709 50.879h2.098v2.097h-2.098z"/></g><g opacity=".3"><path fill="#242424" d="M21 50.879h2.097v2.097h-2.098z"/></g><g opacity=".3"><path fill="#242424" d="M27.29 50.879h2.097v2.097H27.29z"/></g><g opacity=".3"><path fill="#242424" d="M33.58 50.879h2.097v2.097H33.58z"/></g><g opacity=".3"><path fill="#242424" d="M35.676 19.427h2.098v2.098h-2.098z"/></g><g opacity=".3"><path fill="#242424" d="M39.87 19.427h2.098v2.098H39.87z"/></g><g opacity=".3"><path fill="#242424" d="M44.064 19.427h2.097v2.098h-2.097z"/></g><g opacity=".3"><path fill="#242424" d="M35.676 23.62h2.098v2.098h-2.098z"/></g><g opacity=".3"><path fill="#242424" d="M39.87 23.62h2.098v2.098H39.87z"/></g><g opacity=".3"><path fill="#242424" d="M44.064 23.62h2.097v2.098h-2.097z"/></g><g opacity=".3"><path fill="#242424" d="M52.45 33.056h2.098v2.098H52.45z"/></g><g opacity=".3"><path fill="#242424" d="M56.641 33.056h2.098v2.098H56.64z"/></g><g opacity=".3"><path fill="#242424" d="M60.836 33.056h2.098v2.098h-2.098z"/></g><g opacity=".3"><path fill="#242424" d="M52.45 37.25h2.098v2.097H52.45z"/></g><g opacity=".3"><path fill="#242424" d="M56.641 37.25h2.098v2.097H56.64z"/></g><g opacity=".3"><path fill="#242424" d="M60.836 37.25h2.098v2.097h-2.098z"/></g><g opacity=".3"><path fill="#242424" d="M52.45 48.782h2.098v2.097H52.45z"/></g><g opacity=".3"><path fill="#242424" d="M56.641 48.782h2.098v2.097H56.64z"/></g><g opacity=".3"><path fill="#242424" d="M60.836 48.782h2.098v2.097h-2.098z"/></g><g opacity=".3"><path fill="#242424" d="M52.45 52.971h2.098v2.098H52.45z"/></g><g opacity=".3"><path fill="#242424" d="M56.641 52.971h2.098v2.098H56.64z"/></g><g opacity=".3"><path fill="#242424" d="M60.836 52.971h2.098v2.098h-2.098z"/></g><g opacity=".3"><path fill="#242424" d="M39.87 27.814h2.098v2.098H39.87z"/></g><g opacity=".3"><path fill="#242424" d="M44.064 27.814h2.097v2.098h-2.097z"/></g><g opacity=".3"><path fill="#242424" d="M44.064 32.008h2.097v2.097h-2.097z"/></g><g opacity=".3"><path fill="#242424" d="M44.064 36.201h2.097V38.3h-2.097z"/></g><g opacity=".3"><path fill="#242424" d="M44.064 40.395h2.097v2.097h-2.097z"/></g><g opacity=".3"><path fill="#242424" d="M44.064 44.588h2.097v2.098h-2.097z"/></g><g opacity=".3"><path fill="#242424" d="M44.064 48.782h2.097v2.097h-2.097z"/></g></g></g></svg>