<svg xmlns="http://www.w3.org/2000/svg" width="65" height="66" viewBox="0 0 65 66"><g><g opacity=".3"><g opacity=".3"><path fill="#242424" d="M27.233 9.02V2.718h21.006V9.02h-8.783l-4.871 4.06V9.02zm5.251 8.544l7.733-6.444H50.34V.617H25.132V11.12h7.352z"/></g><g opacity=".3"><path fill="#242424" d="M29.353 4.818h2.1V6.92h-2.1z"/></g><g opacity=".3"><path fill="#242424" d="M33.54 4.818h8.402V6.92h-8.403z"/></g><g opacity=".3"><path fill="#242424" d="M44.03 4.818h2.1V6.92h-2.1z"/></g><g opacity=".3"><path fill="#242424" d="M33.949 63.522H16.374l1.048-2.096H32.9zM11.532 50.948h3.145v-2.095h-3.145v-2.096H38.79v2.096H16.774v2.095H38.79v12.574h-2.497l-2.097-4.191h-18.07l-2.097 4.19h-2.497zm-2.097-8.382h32.5v2.096h-32.5zm4.194-6.01c0-.932.626-1.76 1.52-2.016l4.32-1.233c.608.792 1.791 1.925 3.596 1.925 1.804 0 2.988-1.133 3.596-1.926l4.319 1.233c.803.23 1.363.928 1.475 1.74h-1.003a3.148 3.148 0 0 0-3.146 3.143c0 .369.076.719.193 1.048H13.63zm9.436-5.515c.736 0 1.439-.134 2.096-.367v1.125c-.26.401-.982 1.337-2.096 1.337-1.115 0-1.837-.936-2.097-1.337v-1.125c.657.233 1.36.367 2.097.367zm-4.194-8.383a4.196 4.196 0 0 1 4.194-4.19 4.196 4.196 0 0 1 4.193 4.19v2.096a4.196 4.196 0 0 1-4.193 4.191 4.196 4.196 0 0 1-4.194-4.191zm22.45 15.717l6.995-6.99a1.176 1.176 0 0 1 1.663 1.662l-7.43 7.424H31.453a1.049 1.049 0 0 1 0-2.096zm2.711-13.621v-2.096a4.196 4.196 0 0 1 4.194-4.19 4.196 4.196 0 0 1 4.193 4.19v2.096a4.196 4.196 0 0 1-4.193 4.191 4.196 4.196 0 0 1-4.194-4.191zM54.516 36.28h2.097v11.525a5.247 5.247 0 0 1-5.242 5.239H40.887v-2.096h8.387c2.89 0 5.242-2.35 5.242-5.238zm-6.18 18.86h2.086l.839 8.382h-2.087zm-7.449 0h5.342l.838 8.382h-6.18zm3.145-8.383v-4.805l7.43-7.424a3.281 3.281 0 0 0 .927-2.01c.01.073.03.142.03.218V45.71a3.148 3.148 0 0 1-3.145 3.143h-8.387v-2.096zm9.336 16.765l-.848-8.482c3.5-.553 6.19-3.583 6.19-7.235V34.184h-4.194v-1.448a3.769 3.769 0 0 0-2.042-3.36 6.26 6.26 0 0 0 2.042-4.622v-2.096a6.295 6.295 0 0 0-6.29-6.286c-3.47 0-6.29 2.82-6.29 6.286v2.096c0 2.713 1.73 5.022 4.144 5.902l-5.627 5.624h-5.88a4.202 4.202 0 0 0-3.017-3.756L27.258 31.3v-1.872a6.264 6.264 0 0 0 2.097-4.673v-2.096a6.295 6.295 0 0 0-6.29-6.286c-3.47 0-6.29 2.82-6.29 6.286v2.096c0 1.856.813 3.52 2.096 4.673V31.3l-4.298 1.225a4.207 4.207 0 0 0-3.04 4.03v3.916H7.338v6.286h2.096v16.765H0v2.095h65v-2.095z"/></g></g></g></svg>