<svg xmlns="http://www.w3.org/2000/svg" width="65" height="66" viewBox="0 0 65 66"><g><g opacity=".3"><g opacity=".3"><path fill="#242424" d="M62.903 21.142c0 3.152-.916 6.22-2.547 8.859l-9.658-18.44 7.435-3.717c2.947 3.035 4.77 7.166 4.77 11.719zm-12.112 6.376l-6.4-12.803 4.432-2.216 6.643 12.682zm-4.662-.076l-4.349-4.349c.399.041.799.065 1.204.065v-2.097a9.705 9.705 0 0 1-6.576-2.558l-2.45-2.247c-1.385-1.27-3.73-1.218-5.06.11l-2.777 2.778a1.177 1.177 0 0 1-1.664-1.662l3.996-3.997a4.589 4.589 0 0 1 4.533-1.142l9.262 2.778 5.4 10.801zm-2.224 3.58c-.309 0-.612-.127-.831-.345l-8.784-8.784-1.483 1.482 8.784 8.785a1.177 1.177 0 0 1-1.663 1.663l-8.784-8.785-1.482 1.482 8.784 8.785a1.177 1.177 0 0 1-1.663 1.663L28 28.183l-1.482 1.483L35.3 38.45a1.177 1.177 0 0 1-1.663 1.663l-1.182-1.183c.021-.146.044-.293.044-.443a3.27 3.27 0 0 0-3.157-3.26 3.264 3.264 0 0 0-3.145-3.146 3.264 3.264 0 0 0-3.145-3.145 3.27 3.27 0 0 0-3.26-3.157c-.15 0-.296.024-.444.044l-2.993-2.993 4.273-10.68h6.195L22.974 16a3.294 3.294 0 0 0-.958 2.313 3.276 3.276 0 0 0 3.272 3.273c.862 0 1.705-.35 2.314-.959l2.777-2.777c.568-.567 1.569-.59 2.16-.047l2.452 2.247c.78.713 1.644 1.308 2.564 1.784l7.182 7.182a1.177 1.177 0 0 1-.831 2.006zM30.06 39.318l-1.843 1.842a1.177 1.177 0 0 1-1.663-1.663l1.844-1.842a1.177 1.177 0 0 1 1.663 1.663zm-6.994-2.134c0-.31.124-.612.344-.832l1.842-1.842a1.177 1.177 0 0 1 1.663 1.663l-1.843 1.842a1.177 1.177 0 0 1-2.007-.831zm-3.146-3.145c0-.31.125-.613.344-.832l1.843-1.843a1.177 1.177 0 0 1 1.663 1.663l-1.843 1.843a1.177 1.177 0 0 1-2.007-.831zm-3.145-3.146c0-.309.125-.612.344-.831l1.843-1.843a1.177 1.177 0 0 1 1.663 1.663l-1.843 1.843a1.177 1.177 0 0 1-2.007-.831zm-6.77-6.645l5.604-13.7 2.944 1.146-5.507 13.77zm-7.907-4.686c0-4.81 2.036-9.143 5.279-12.216l6.276 2.44-8.55 20.904c-1.915-2.786-3.005-6.116-3.005-9.549zM19.845 2.714c4.5 0 8.732 1.753 11.914 4.935l.741.741.741-.741a16.738 16.738 0 0 1 11.914-4.935h.899c3.927 0 7.536 1.362 10.404 3.623l-13.571 6.786-9.299-2.789a6.593 6.593 0 0 0-2.137-.257v-.024H20.116L9.232 5.82a16.733 16.733 0 0 1 9.713-3.106zM46.055.617h-.9C40.437.617 35.98 2.33 32.5 5.463A18.802 18.802 0 0 0 19.845.617h-.899C8.498.617 0 9.116 0 19.563v1.58c0 5.853 2.774 11.473 7.419 15.035l19.84 15.21a55.89 55.89 0 0 1-8.507 1.657l.24 2.083c16.883-1.934 28.18-10.563 32.379-14.316v2.79h2.097v-6.29h-6.29v2.097h2.591c-3.13 2.73-10.063 7.999-20.03 11.238L8.694 34.514c-.763-.586-1.447-1.25-2.092-1.95l2.607-6.375 5.003 2.001 1.297-3.241 1.88 1.879-1.753 1.752a3.295 3.295 0 0 0-.959 2.314 3.27 3.27 0 0 0 3.157 3.26A3.264 3.264 0 0 0 20.98 37.3a3.264 3.264 0 0 0 3.145 3.145 3.27 3.27 0 0 0 3.26 3.157c.862 0 1.705-.349 2.314-.958l1.753-1.753.704.705c.61.609 1.452.958 2.314.958a3.27 3.27 0 0 0 3.26-3.157 3.264 3.264 0 0 0 3.145-3.145 3.264 3.264 0 0 0 3.145-3.146 3.27 3.27 0 0 0 3.157-3.26c0-.149-.024-.295-.044-.443l1.505-1.505 1.216 2.432 6.585-3.292 2.554 4.876a16.67 16.67 0 0 1-2.687 2.599l-1.198.917 1.277 1.665 1.196-.918C62.226 32.616 65 26.996 65 21.142v-1.58C65 9.117 56.502.618 46.055.618z"/></g><g opacity=".3"><path fill="#242424" d="M23.066 60.376h2.096v3.145h-2.096zm8.386-3.145h2.096v6.29h-2.096zm8.386-4.193h2.096v10.483h-2.096zm4.193-2.096h-6.29v12.579h-2.096v-8.386h-6.29v8.386H27.26V58.28h-6.29v5.24h-2.096v2.097h27.254v-2.096h-2.096z"/></g><g opacity=".3"><path fill="#242424" d="M14.677 53.038h2.097v2.097h-2.097z"/></g><g opacity=".3"><path fill="#242424" d="M4.193 44.65v-2.097h2.096v-2.097H4.193V38.36H2.096v2.096H0v2.097h2.096v2.096z"/></g><g opacity=".3"><path fill="#242424" d="M62.904 41.505h-2.097V43.6h-2.096v2.097h2.096v2.096h2.097v-2.096H65V43.6h-2.096z"/></g><g opacity=".3"><path fill="#242424" d="M53.47 56.183h-2.097v2.097h-2.096v2.096h2.096v2.097h2.096v-2.097h2.097V58.28h-2.097z"/></g><g opacity=".3"><path fill="#242424" d="M7.338 59.328H5.24v2.096H3.145v2.097H5.24v2.096h2.097v-2.096h2.096v-2.097H7.338z"/></g></g></g></svg>