<svg xmlns="http://www.w3.org/2000/svg" width="140" height="140" viewBox="0 0 140 140"><g><g><g><path fill="#242424" d="M0 70C0 31.34 31.34 0 70 0s70 31.34 70 70-31.34 70-70 70S0 108.66 0 70z"/></g><g><g><path fill="#fff" d="M95.42 96.71a4.198 4.198 0 0 1-4.194 4.193H49.29a4.198 4.198 0 0 1-4.193-4.193V56.87a4.198 4.198 0 0 1 4.193-4.194h22.016c.58 0 1.049-.469 1.049-1.048V44.29a4.198 4.198 0 0 1 4.193-4.193h14.678a4.198 4.198 0 0 1 4.193 4.193zM60.822 48.484v2.097h-4.194v-2.097zm-8.388-2.097V44.29h12.581v2.097zM91.225 38H76.549a6.297 6.297 0 0 0-6.29 6.29v6.29H62.92v-2.096h3.146c.579 0 1.048-.47 1.048-1.049v-4.193c0-.58-.47-1.048-1.048-1.048H51.387c-.579 0-1.048.469-1.048 1.048v4.193c0 .58.47 1.049 1.048 1.049h3.145v2.097H49.29A6.297 6.297 0 0 0 43 56.87V96.71a6.297 6.297 0 0 0 6.29 6.29h41.936a6.297 6.297 0 0 0 6.29-6.29V44.29a6.297 6.297 0 0 0-6.29-6.29z"/><path fill="none" stroke="#fff" stroke-miterlimit="20" stroke-width=".5" d="M95.42 96.71a4.198 4.198 0 0 1-4.194 4.193H49.29a4.198 4.198 0 0 1-4.193-4.193V56.87a4.198 4.198 0 0 1 4.193-4.194h22.016c.58 0 1.049-.469 1.049-1.048V44.29a4.198 4.198 0 0 1 4.193-4.193h14.678a4.198 4.198 0 0 1 4.193 4.193zM60.822 48.484v2.097h-4.194v-2.097zm-8.388-2.097V44.29h12.581v2.097zM91.225 38H76.549a6.297 6.297 0 0 0-6.29 6.29v6.29H62.92v-2.096h3.146c.579 0 1.048-.47 1.048-1.049v-4.193c0-.58-.47-1.048-1.048-1.048H51.387c-.579 0-1.048.469-1.048 1.048v4.193c0 .58.47 1.049 1.048 1.049h3.145v2.097H49.29A6.297 6.297 0 0 0 43 56.87V96.71a6.297 6.297 0 0 0 6.29 6.29h41.936a6.297 6.297 0 0 0 6.29-6.29V44.29a6.297 6.297 0 0 0-6.29-6.29z"/></g><g><path fill="#fff" d="M91.188 50.657H76.422V45.91a1.584 1.584 0 0 1 1.582-1.582h11.602a1.584 1.584 0 0 1 1.582 1.582zm-1.582-8.438H78.004a3.696 3.696 0 0 0-3.692 3.691v5.801c0 .583.472 1.055 1.055 1.055h16.875c.583 0 1.055-.472 1.055-1.055v-5.8a3.696 3.696 0 0 0-3.691-3.692z"/><path fill="none" stroke="#fff" stroke-miterlimit="20" stroke-width=".5" d="M91.188 50.657H76.422V45.91a1.584 1.584 0 0 1 1.582-1.582h11.602a1.584 1.584 0 0 1 1.582 1.582zm-1.582-8.438H78.004a3.696 3.696 0 0 0-3.692 3.691v5.801c0 .583.472 1.055 1.055 1.055h16.875c.583 0 1.055-.472 1.055-1.055v-5.8a3.696 3.696 0 0 0-3.691-3.692z"/></g><g><path fill="#fff" d="M91.203 94.562h-41.89v-35.86h41.89zm1.047-37.97H48.266c-.578 0-1.047.473-1.047 1.055v37.97c0 .582.469 1.055 1.047 1.055H92.25c.578 0 1.047-.473 1.047-1.055v-37.97c0-.582-.469-1.055-1.047-1.055z"/><path fill="none" stroke="#fff" stroke-miterlimit="20" stroke-width=".5" d="M91.203 94.562h-41.89v-35.86h41.89zm1.047-37.97H48.266c-.578 0-1.047.473-1.047 1.055v37.97c0 .582.469 1.055 1.047 1.055H92.25c.578 0 1.047-.473 1.047-1.055v-37.97c0-.582-.469-1.055-1.047-1.055z"/></g></g></g></g></svg>