<svg xmlns="http://www.w3.org/2000/svg" width="140" height="140" viewBox="0 0 140 140"><g><g><g><path fill="#242424" d="M0 70C0 31.34 31.34 0 70 0s70 31.34 70 70-31.34 70-70 70S0 108.66 0 70z"/></g><g><g><path fill="#fff" d="M83.5 96.906c0 1.12-.911 2.032-2.031 2.032H57.094a2.034 2.034 0 0 1-2.032-2.032v-7.564a20.28 20.28 0 0 1 6.46-14.814 24.354 24.354 0 0 0 7.76-17.792c0-.25.203-.455.454-.455h8.68c.215 0 .403.154.445.366 5.16 25.8 4.639 20.41 4.639 40.26zm-24.375-48.75v-6.093h23.36a3.05 3.05 0 0 1 3.046 3.046 3.05 3.05 0 0 1-3.047 3.047 5.087 5.087 0 0 0-4.976 4.063h-6.544a6.104 6.104 0 0 0-5.745-4.063zm23.72 7.694a4.505 4.505 0 0 0-1.376-2.437v-.179c0-.56.455-1.015 1.015-1.015 3.92 0 7.11-3.19 7.11-7.11 0-3.92-3.19-7.109-7.11-7.109h-25.39c-1.122 0-2.031.91-2.031 2.031v1.016H53.03c-1.122 0-2.031.91-2.031 2.031v4.063c0 1.121.91 2.03 2.031 2.03h2.032v1.017c0 1.121.909 2.03 2.03 2.03h2.905a15.389 15.389 0 0 1-4.34 8.72 2.031 2.031 0 1 0 2.872 2.873 19.474 19.474 0 0 0 5.561-11.592h1.128c.73 0 1.37.388 1.727.968a4.51 4.51 0 0 0-1.727 3.549 20.28 20.28 0 0 1-6.46 14.815A24.354 24.354 0 0 0 51 89.342v7.564A6.1 6.1 0 0 0 57.094 103h24.375a6.1 6.1 0 0 0 6.094-6.094c0-20.156.503-14.95-4.718-41.056z"/></g></g></g></g></svg>