<svg xmlns="http://www.w3.org/2000/svg" width="140" height="140" viewBox="0 0 140 140"><g><g><g><path fill="#242424" d="M0 70C0 31.34 31.34 0 70 0s70 31.34 70 70-31.34 70-70 70S0 108.66 0 70z"/></g><g><g><path fill="#fff" d="M103.191 99.191h-3.808V82.053c0-1.05.854-1.905 1.904-1.905 1.05 0 1.904.855 1.904 1.905zm-24.12-30.468H93.67c1.05 0 1.904.854 1.904 0v30.465c-.815-.002-3.715-.003-12.695.003H79.07zm16.503 30.465c.638.001 0 .003 0 .003zM73.23 48.156v-3.808h6.475c5.25 0 9.522 4.271 9.522 9.521v3.428h-3.809v-3.428a5.72 5.72 0 0 0-5.713-5.713zm18.536 12.95v3.808h-8.887v-3.809zm-22.344-10.41h-3.809v-8.887h3.809zm-14.092-2.54a5.72 5.72 0 0 0-5.713 5.713v7.236H45.81V53.87c0-5.25 4.27-9.521 9.521-9.521h6.475v3.808zm1.904 20.567H45.81v-3.809h11.425zm10.157 15.234h-2.47l-.07 7.617H48.349l-.152-7.617h-2.387V72.531H67.39zm33.896-7.617c-.667 0-1.308.116-1.904.327v-6.04c0-2.483-1.592-4.6-3.809-5.385v-6.04a1.904 1.904 0 0 0-1.904-1.905h-.635v-3.428c0-7.35-5.98-13.33-13.33-13.33H73.23v-.635A1.904 1.904 0 0 0 71.326 38H63.71a1.904 1.904 0 0 0-1.904 1.904v.635H55.33C47.98 40.54 42 46.52 42 53.87v31.992c0 1.052.853 1.905 1.904 1.905h.635V99.19h-.635a1.904 1.904 0 0 0 0 3.809h5.078a1.904 1.904 0 0 0 0-3.809h-.634v-3.808h16.504v3.808h-.635a1.904 1.904 0 0 0 0 3.809h5.078a1.904 1.904 0 0 0 0-3.809h-.635V87.766h.635a1.904 1.904 0 0 0 1.904-1.905V70.627a1.904 1.904 0 0 0-1.904-1.904h-8.252V63.01a1.904 1.904 0 0 0-1.904-1.905h-5.713V53.87c0-1.05.854-1.904 1.904-1.904h6.475v.635c0 1.051.852 1.904 1.904 1.904h7.617A1.904 1.904 0 0 0 73.23 52.6v-.635h6.475c1.05 0 1.904.854 1.904 1.904v3.428h-.634A1.904 1.904 0 0 0 79.07 59.2v6.04a5.722 5.722 0 0 0-3.808 5.386v30.469c0 1.051.852 1.904 1.904 1.904h27.93a1.904 1.904 0 0 0 1.904-1.904V82.053a5.72 5.72 0 0 0-5.713-5.713z"/></g></g></g></g></svg>