<?xml version="1.0" encoding="utf-8"?>
<!-- Generator: Adobe Illustrator 24.1.2, SVG Export Plug-In . SVG Version: 6.00 Build 0)  -->
<svg version="1.1" id="Layer_1" xmlns="http://www.w3.org/2000/svg" xmlns:xlink="http://www.w3.org/1999/xlink" x="0px" y="0px"
	 viewBox="0 0 196.4 277.8" style="enable-background:new 0 0 196.4 277.8;" xml:space="preserve">
<style type="text/css">
	.st0{fill:#FFFFFF;}
</style>
<g>
	<g transform="rotate(-19 99 139.5)">
		<path class="st0" d="M100.3,142.9c4.8-12.5,0.5-19.7-2.8-31.7c-3-11-7.9-33.6-13.1-42.6C74.6,52.8,64.9,51.9,52.3,40
			C39.1,27.2,33.5,14.1,44.6-2.4c13-17.3,37.4-18.3,50.9-1.6c17.1,21.1-9.6,43.7,0.3,69.7l0.6,1.5c5.5,13.5,11.7,26.7,17.6,40
			c5.5,11.7,16.5,20.5,28.8,24.5c13.5,4.3,22.3,8,31.2,19.8c16.9,24.9,12.8,57.5-13.7,73.5c-18.6,10.8-35.6,6.6-53.9-1.9
			C92,216.7,84,213.8,68,214.5c-7.9,0.6-17.3,3.3-24.1,7.2c-9,5.1-16.1,10.6-22.1,19.1c-6.2,8.6-12.4,13.9-23.6,10.3
			c-22.9-8.6-12.1-41.9,12.9-34.9c15.4,4.1,24,2.2,38.4-2.7c1.1-0.4,2.3-0.8,3.4-1.3c26.2-12.6,29.8-27.5,40.4-52.4
			C95.6,154.1,98,148.5,100.3,142.9L100.3,142.9z"/>
	</g>
</g>
</svg>
