<svg xmlns="http://www.w3.org/2000/svg" width="35" height="35" viewBox="0 0 35 35"><g><g><g transform="rotate(90 17.5 17.5)"><g/><g transform="rotate(-90 13.5 17)"><path fill="#f2312a" d="M18.717 24.019c.534-1.394.061-2.202-.313-3.549-.337-1.235-.88-3.76-1.464-4.77-1.098-1.76-2.188-1.864-3.597-3.198-1.477-1.433-2.106-2.898-.861-4.739 1.45-1.93 4.185-2.042 5.694-.173 1.91 2.365-1.077 4.885.036 7.793l.067.171c.62 1.508 1.31 2.99 1.974 4.479.619 1.311 1.85 2.296 3.22 2.737 1.508.485 2.496.89 3.488 2.22 1.89 2.79 1.427 6.436-1.538 8.224-2.085 1.205-3.983.732-6.037-.209-1.597-.729-2.498-1.049-4.292-.973-.883.07-1.932.37-2.703.805-1.002.572-1.802 1.185-2.477 2.133-.695.96-1.388 1.558-2.64 1.15-2.564-.963-1.352-4.685 1.448-3.907 1.73.46 2.685.24 4.3-.304.138-.047.247-.089.379-.145 2.935-1.415 3.333-3.081 4.525-5.864.266-.628.53-1.254.791-1.881z"/></g></g></g></g></svg>