<svg xmlns="http://www.w3.org/2000/svg" width="55" height="66" viewBox="0 0 55 66"><g><g opacity=".3"><g opacity=".3"><path d="M52.42 59.266a4.198 4.198 0 0 1-4.194 4.194H6.29a4.198 4.198 0 0 1-4.193-4.194V19.428a4.198 4.198 0 0 1 4.193-4.194h22.016c.58 0 1.049-.47 1.049-1.048V6.847a4.198 4.198 0 0 1 4.193-4.194h14.678a4.198 4.198 0 0 1 4.193 4.194zM17.822 11.041v2.096h-4.194v-2.096zM9.435 8.944V6.847h12.581v2.097zM48.225.557H33.549a6.297 6.297 0 0 0-6.29 6.29v6.29H19.92v-2.096h3.146c.579 0 1.048-.47 1.048-1.049V5.8c0-.58-.47-1.049-1.048-1.049H8.387c-.579 0-1.048.47-1.048 1.049v4.193c0 .58.47 1.049 1.048 1.049h3.145v2.096H6.29A6.297 6.297 0 0 0 0 19.427v39.84a6.297 6.297 0 0 0 6.29 6.29h41.936a6.297 6.297 0 0 0 6.29-6.29V6.846a6.297 6.297 0 0 0-6.29-6.29z"/></g><g opacity=".3"><path d="M48.188 13.213H33.422V8.467a1.584 1.584 0 0 1 1.582-1.582h11.602a1.584 1.584 0 0 1 1.582 1.582zm-1.582-8.437H35.004a3.696 3.696 0 0 0-3.692 3.691v5.801c0 .582.472 1.055 1.055 1.055h16.875c.583 0 1.055-.473 1.055-1.055V8.467a3.696 3.696 0 0 0-3.691-3.691z"/></g><g opacity=".3"><path d="M48.203 57.119H6.313v-35.86h41.89zm1.047-37.97H5.266c-.578 0-1.047.472-1.047 1.055v37.97c0 .582.469 1.054 1.047 1.054H49.25c.578 0 1.047-.472 1.047-1.054v-37.97c0-.583-.469-1.055-1.047-1.055z"/></g></g></g></svg>