<svg xmlns="http://www.w3.org/2000/svg" width="33" height="33" viewBox="0 0 33 33">
  <g id="Group_9389" data-name="Group 9389" transform="translate(-1600 -972)" opacity="0.998">
    <path id="Icon_ionic-logo-facebook" data-name="Icon ionic-logo-facebook" d="M19.617,4.5H5.383a.884.884,0,0,0-.883.883V19.617a.884.884,0,0,0,.883.883H12.5V14.167H10.587V11.833H12.5V10.108a3.04,3.04,0,0,1,3.279-3.192c.883,0,1.833.067,2.054.1V9.171H16.362c-1,0-1.2.475-1.2,1.175v1.488h2.392l-.312,2.333H15.167V20.5h4.45a.884.884,0,0,0,.883-.883V5.383A.884.884,0,0,0,19.617,4.5Z" transform="translate(1604 976)" fill="#fafafa"/>
    <g id="Ellipse_51" data-name="Ellipse 51" transform="translate(1600 972)" fill="none" stroke="#d5d5d5" stroke-width="2">
      <circle cx="16.5" cy="16.5" r="16.5" stroke="none"/>
      <circle cx="16.5" cy="16.5" r="15.5" fill="none"/>
    </g>
  </g>
</svg>
