<?xml version="1.0" encoding="utf-8"?>
<!-- Generator: Adobe Illustrator 24.1.2, SVG Export Plug-In . SVG Version: 6.00 Build 0)  -->
<svg version="1.1" id="Layer_1" xmlns="http://www.w3.org/2000/svg" xmlns:xlink="http://www.w3.org/1999/xlink" x="0px" y="0px"
	 viewBox="0 0 434.4 541.9" style="enable-background:new 0 0 434.4 541.9;" xml:space="preserve">
<style type="text/css">
	.st0{fill:#f3a700;}
</style>
<g>
	<g transform="rotate(21 218 271)">
		<path class="st0" d="M312.3,304.1c9.9-26,1.1-41.1-5.8-66.2c-6.3-23-16.4-70.1-27.3-89c-20.5-32.8-40.8-34.8-67-59.6
			C184.6,62.6,172.9,35.3,196.1,1c27-36,78-38.1,106.1-3.2c35.6,44.1-20.1,91.1,0.7,145.3l1.2,3.2c11.6,28.1,24.4,55.7,36.8,83.5
			c11.5,24.5,34.5,42.8,60,51c28.1,9,46.5,16.6,65,41.4c35.2,52,26.6,120-28.7,153.3c-38.8,22.5-74.2,13.7-112.5-3.9
			c-29.8-13.6-46.6-19.6-80-18.2c-16.5,1.3-36,6.9-50.4,15c-18.7,10.7-33.6,22.1-46.2,39.8c-12.9,17.9-25.9,29.1-49.2,21.4
			c-47.8-17.9-25.2-87.4,27-72.8c32.2,8.6,50,4.5,80.1-5.7c2.4-0.8,4.7-1.7,7-2.7c54.7-26.4,62.1-57.5,84.3-109.3
			C302.5,327.5,307.4,315.8,312.3,304.1L312.3,304.1z"/>
	</g>
</g>
</svg>
