<svg xmlns="http://www.w3.org/2000/svg" width="17" height="19" viewBox="0 0 17 19"><g><g><g><path fill="#fff" d="M11.456 11.208c-.196.127-.394.249-.596.366-.174.102-.138.085-.317.179 1.069.534 2.838 1.115 4.535 1.137.488-.851.94-1.735 1.242-2.686-1.51.653-3.135.922-4.864 1.004z"/></g><g><path fill="#fff" d="M16.932 4.44a14.075 14.075 0 0 1-5.192 6.579c1.685-.179 3.726-.883 4.789-1.581.04-.142.022-.082.058-.226a14.04 14.04 0 0 0 .345-4.772z"/></g><g><path fill="#fff" d="M14.89 13.116c-1.81 0-3.54-.343-5.129-.966a13.988 13.988 0 0 1-2.691-1.413l-.022-.014A14.027 14.027 0 0 1 .921.461a14.013 14.013 0 0 0-.865 6.255c.06.687.17 1.359.326 2.014.03.126-.003.001.03.126.987 1.037 2.501 1.985 3.909 2.542a13.979 13.979 0 0 1-3.68-1.726 13.997 13.997 0 0 0 1.815 3.73c.115.167.049.08.171.242.532.365 2.048.916 3.031 1.097a13.93 13.93 0 0 1-2.58-.501 14.07 14.07 0 0 0 5.83 4.299 14.096 14.096 0 0 0 6.05-5.424z"/></g></g></g></svg>