<svg xmlns="http://www.w3.org/2000/svg" width="36" height="27" viewBox="0 0 36 27"><g><g opacity=".5"><path fill="#fff" d="M14.555 20.391V6.575L24.75 13.48zm21.206-14.42c0-3.165-2.327-5.71-5.203-5.71A254.699 254.699 0 0 0 18.633.008H17.368c-4.05 0-8.03.07-11.925.253C2.573.26.247 2.821.247 5.984A103.022 103.022 0 0 0 0 13.494C-.007 15.997.07 18.5.24 21.01c0 3.164 2.327 5.73 5.196 5.73 4.092.19 8.29.275 12.557.268 4.275.014 8.46-.07 12.558-.267 2.876 0 5.203-2.567 5.203-5.73.17-2.511.247-5.014.24-7.524.014-2.503-.064-5.007-.233-7.517z"/></g></g></svg>