<svg xmlns="http://www.w3.org/2000/svg" width="17" height="13" viewBox="0 0 17 13"><defs><clipPath id="70dqa"><path fill="#fff" d="M1.66.554h13.275c.913 0 1.66.669 1.66 1.486v8.92c0 .817-.747 1.486-1.66 1.486H1.659C.747 12.446 0 11.777 0 10.96V2.04C0 1.223.747.554 1.66.554z"/></clipPath></defs><g><g opacity=".7"><g opacity=".7"><path fill="none" stroke="#fff" stroke-linecap="round" stroke-linejoin="round" stroke-miterlimit="20" stroke-width="2" d="M1.66.554h13.275c.913 0 1.66.669 1.66 1.486v8.92c0 .817-.747 1.486-1.66 1.486H1.659C.747 12.446 0 11.777 0 10.96V2.04C0 1.223.747.554 1.66.554z" clip-path="url(&quot;#70dqa&quot;)"/></g><g opacity=".7"><path fill="none" stroke="#fff" stroke-linecap="round" stroke-linejoin="round" stroke-miterlimit="20" d="M15.274 2.816v0L8.297 7.419v0L1.321 2.816v0"/></g></g></g></svg>