<svg xmlns="http://www.w3.org/2000/svg" width="27" height="27" viewBox="0 0 27 27"><g><g opacity=".5"><g opacity=".5"><path fill="#fff" d="M27 7.875v11.25C27 23.456 23.456 27 19.125 27H7.875C3.544 27 0 23.456 0 19.125V7.875C0 3.544 3.544 0 7.875 0h11.25C23.456 0 27 3.544 27 7.875zM7.875 2.25c-1.49 0-2.911.584-3.973 1.652A5.616 5.616 0 0 0 2.25 7.875v11.25c0 1.49.583 2.91 1.652 3.973a5.616 5.616 0 0 0 3.973 1.652h11.25c1.49 0 2.91-.584 3.973-1.652a5.616 5.616 0 0 0 1.652-3.973V7.875c0-1.49-.584-2.91-1.652-3.973a5.616 5.616 0 0 0-3.973-1.652z"/></g><g opacity=".5"><path fill="#fff" d="M20.812 7.875a1.683 1.683 0 0 1-1.687-1.688 1.688 1.688 0 1 1 1.688 1.688z"/></g><g opacity=".5"><path fill="#fff" d="M20.25 13.5a6.752 6.752 0 0 1-6.75 6.75 6.752 6.752 0 0 1-6.75-6.75 6.752 6.752 0 0 1 6.75-6.75 6.752 6.752 0 0 1 6.75 6.75zM9 13.5c0 2.482 2.018 4.5 4.5 4.5s4.5-2.018 4.5-4.5S15.982 9 13.5 9z"/></g></g></g></svg>