<svg xmlns="http://www.w3.org/2000/svg" width="27" height="27" viewBox="0 0 27 27"><g><g opacity=".5"><path fill="#fff" d="M22.505 22.517h-3.867v-6.575c0-1.575-.563-2.65-1.962-2.65-1.069 0-1.702.724-1.983 1.427-.105.253-.133.598-.133.95v6.848h-3.868V10.493h3.868v1.674c.562-.802 1.441-1.955 3.487-1.955 2.538 0 4.458 1.673 4.458 5.28zM6.544 8.665c-1.238 0-2.04-.921-2.04-2.074 0-1.174.824-2.074 2.09-2.074 1.265 0 2.038.893 2.066 2.074 0 1.153-.801 2.074-2.088 2.074zm1.828 13.852H4.505V10.493h3.867zM2.312.017C1.08.017.004.903.004 2.119v22.577c0 1.224 1.076 2.314 2.306 2.314h22.521c1.238 0 2.166-1.097 2.166-2.314V2.12C27.005.903 26.07.017 24.839.017z"/></g></g></svg>