<svg xmlns="http://www.w3.org/2000/svg" width="17" height="17" viewBox="0 0 17 17"><g><g opacity=".7"><path fill="none" stroke="#fff" stroke-linecap="round" stroke-linejoin="round" stroke-miterlimit="20" d="M15.97 12.23v2.258a1.505 1.505 0 0 1-1.641 1.506 14.896 14.896 0 0 1-6.496-2.311 14.678 14.678 0 0 1-4.516-4.516 14.896 14.896 0 0 1-2.31-6.526A1.505 1.505 0 0 1 2.503 1h2.258c.756-.008 1.4.546 1.505 1.295.096.722.273 1.432.527 2.115.207.55.075 1.17-.338 1.588l-.956.956a12.043 12.043 0 0 0 4.516 4.516l.956-.956a1.505 1.505 0 0 1 1.588-.339 9.665 9.665 0 0 0 2.115.527 1.505 1.505 0 0 1 1.295 1.528z"/></g></g></svg>