<svg xmlns="http://www.w3.org/2000/svg" width="33" height="33" viewBox="0 0 33 33">
  <g id="Group_9387" data-name="Group 9387" transform="translate(-1678 -972)" opacity="0.998">
    <g id="Icon_ionic-logo-instagram" data-name="Icon ionic-logo-instagram" transform="translate(1686.5 980.5)">
      <path id="Path_38589" data-name="Path 38589" d="M15.833,5.833a3.343,3.343,0,0,1,3.333,3.333v6.667a3.343,3.343,0,0,1-3.333,3.333H9.167a3.343,3.343,0,0,1-3.333-3.333V9.167A3.343,3.343,0,0,1,9.167,5.833h6.667m0-1.333H9.167A4.68,4.68,0,0,0,4.5,9.167v6.667A4.68,4.68,0,0,0,9.167,20.5h6.667A4.68,4.68,0,0,0,20.5,15.833V9.167A4.68,4.68,0,0,0,15.833,4.5Z" transform="translate(-4.5 -4.5)" fill="#fafafa"/>
      <path id="Path_38590" data-name="Path 38590" d="M24.625,11a1,1,0,1,1,1-1A1,1,0,0,1,24.625,11Z" transform="translate(-12.292 -6.333)" fill="#fafafa"/>
      <path id="Path_38591" data-name="Path 38591" d="M15.25,12.583a2.667,2.667,0,1,1-2.667,2.667,2.669,2.669,0,0,1,2.667-2.667m0-1.333a4,4,0,1,0,4,4,4,4,0,0,0-4-4Z" transform="translate(-7.25 -7.25)" fill="#fafafa"/>
    </g>
    <g id="Ellipse_53" data-name="Ellipse 53" transform="translate(1678 972)" fill="none" stroke="#d5d5d5" stroke-width="2">
      <circle cx="16.5" cy="16.5" r="16.5" stroke="none"/>
      <circle cx="16.5" cy="16.5" r="15.5" fill="none"/>
    </g>
  </g>
</svg>
