<?xml version="1.0" encoding="utf-8"?>
<!-- Generator: Adobe Illustrator 24.1.2, SVG Export Plug-In . SVG Version: 6.00 Build 0)  -->
<svg version="1.1" id="Layer_1" xmlns="http://www.w3.org/2000/svg" xmlns:xlink="http://www.w3.org/1999/xlink" x="0px" y="0px"
	 viewBox="0 0 144 43.4" style="enable-background:new 0 0 144 43.4;" xml:space="preserve">
<style type="text/css">
	.st0{fill:#FFFFFF;}
	.st1{fill:none;stroke:#FFFFFF;stroke-miterlimit:20;}
	.st2{fill:none;stroke:#FFFFFF;stroke-width:0.22;stroke-miterlimit:20;}
	.st3{fill:#FF3232;}
	.st4{fill:none;stroke:#E30016;stroke-width:0.22;stroke-miterlimit:20;}
</style>
<g>
	<g>
		<g>
			<path class="st0" d="M41.3,0.5h6.9v20.2h15.7v-4.1L54.4,0.5h8l5,10.5l4.8-10.4h17.7L100,17.9h0.2V0.6h7v11.7h0.2l8.4-11.8h8.2
				l-9.3,11.8l6.5,8.8c4.2,0,8.3,0,12.5,0c1.1,0,2.3-0.5,2.7-1.6c0.5-1.6-0.6-2.4-1.8-3.2c-2.3-1.5-4.4-1.4-6.8-3.4
				c-0.9-0.8-1.3-1.6-1.7-2.8c-1.1-4.1,1.7-8,5.8-9c2.7-0.6,5.3-0.5,8-0.1c0.8,0.1,1.4,0.3,2.1,0.5v5.1c-2.1-1.1-6.1-1.9-8.2-0.5
				c-1.2,0.9-1.1,2-0.1,3c1.4,1.5,4.4,1.9,6.2,3c1.9,1.1,3.1,2.6,3.5,4.8c1,5.6-4.4,9.1-9.4,9c-5.9-0.1-11.8,0-17.7,0h-0.2l-8.7-13
				h-0.2v13h-9.6L87.4,8.4v17.5l-6.3,0V5.8h-4l-6.4,10.8v9.3H41.3V0.5z"/>
			<path class="st1" d="M41.3,0.5L41.3,0.5h6.9v20.2h15.7l0,0v-4.1l0,0L54.4,0.5l0,0h8l0,0l5,10.5l0,0l4.8-10.4l0,0h17.7l0,0
				L100,17.9l0,0h0.2l0,0V0.6l0,0h7v11.7h0.2l0,0l8.4-11.8l0,0h8.2l0,0l-9.3,11.8l0,0l6.5,8.8c4.2,0,8.3,0,12.5,0
				c1.1,0,2.3-0.5,2.7-1.6c0.5-1.6-0.6-2.4-1.8-3.2c-2.3-1.5-4.4-1.4-6.8-3.4c-0.9-0.8-1.3-1.6-1.7-2.8c-1.1-4.1,1.7-8,5.8-9
				c2.7-0.6,5.3-0.5,8-0.1c0.8,0.1,1.4,0.3,2.1,0.5v5.1c-2.1-1.1-6.1-1.9-8.2-0.5c-1.2,0.9-1.1,2-0.1,3c1.4,1.5,4.4,1.9,6.2,3
				c1.9,1.1,3.1,2.6,3.5,4.8c1,5.6-4.4,9.1-9.4,9c-5.9-0.1-11.8,0-17.7,0h-0.2l0,0l-8.7-13l0,0h-0.2v13h-9.6l0,0L87.4,8.4v17.5
				l-6.3,0l0,0V5.8l0,0h-4l0,0l-6.4,10.8v9.3H41.3l0,0V0.5z"/>
		</g>
		<g>
			<path class="st2" d="M41.3,0.5L41.3,0.5h6.9v20.2h15.7l0,0v-4.1l0,0L54.4,0.5l0,0h8l0,0l5,10.5l0,0l4.8-10.4l0,0h17.7l0,0
				L100,17.9l0,0h0.2l0,0V0.6l0,0h7v11.7h0.2l0,0l8.4-11.8l0,0h8.2l0,0l-9.3,11.8l0,0l6.5,8.8c4.2,0,8.3,0,12.5,0
				c1.1,0,2.3-0.5,2.7-1.6c0.5-1.6-0.6-2.4-1.8-3.2c-2.3-1.5-4.4-1.4-6.8-3.4c-0.9-0.8-1.3-1.6-1.7-2.8c-1.1-4.1,1.7-8,5.8-9
				c2.7-0.6,5.3-0.5,8-0.1c0.8,0.1,1.4,0.3,2.1,0.5v5.1c-2.1-1.1-6.1-1.9-8.2-0.5c-1.2,0.9-1.1,2-0.1,3c1.4,1.5,4.4,1.9,6.2,3
				c1.9,1.1,3.1,2.6,3.5,4.8c1,5.6-4.4,9.1-9.4,9c-5.9-0.1-11.8,0-17.7,0h-0.2l0,0l-8.7-13l0,0h-0.2v13h-9.6l0,0L87.4,8.4v17.5
				l-6.3,0l0,0V5.8l0,0h-4l0,0l-6.4,10.8v9.3H41.3l0,0V0.5z"/>
		</g>
		<g>
			<path class="st3" d="M18.5,25.8c0.8-2,0.1-3.2-0.4-5.1c-0.5-1.8-1.3-5.4-2.1-6.8c-1.6-2.5-3.1-2.7-5.2-4.6
				c-2.1-2.1-3-4.2-1.2-6.8c2.1-2.8,6-2.9,8.2-0.2c2.7,3.4-1.5,7,0.1,11.2l0.1,0.2c0.9,2.2,1.9,4.3,2.8,6.4c0.9,1.9,2.6,3.3,4.6,3.9
				c2.2,0.7,3.6,1.3,5,3.2c2.7,4,2,9.2-2.2,11.8c-3,1.7-5.7,1-8.6-0.3c-2.3-1-3.6-1.5-6.1-1.4c-1.3,0.1-2.8,0.5-3.9,1.2
				c-1.4,0.8-2.6,1.7-3.5,3.1c-1,1.4-2,2.2-3.8,1.6c-3.7-1.4-1.9-6.7,2.1-5.6c2.5,0.7,3.8,0.3,6.2-0.4c0.2-0.1,0.4-0.1,0.5-0.2
				c4.2-2,4.8-4.4,6.5-8.4C17.8,27.6,18.1,26.7,18.5,25.8z"/>
		</g>
		<g>
			<path class="st4" d="M18.5,25.8c0.8-2,0.1-3.2-0.4-5.1c-0.5-1.8-1.3-5.4-2.1-6.8c-1.6-2.5-3.1-2.7-5.2-4.6
				c-2.1-2.1-3-4.2-1.2-6.8c2.1-2.8,6-2.9,8.2-0.2c2.7,3.4-1.5,7,0.1,11.2l0.1,0.2c0.9,2.2,1.9,4.3,2.8,6.4c0.9,1.9,2.6,3.3,4.6,3.9
				c2.2,0.7,3.6,1.3,5,3.2c2.7,4,2,9.2-2.2,11.8c-3,1.7-5.7,1-8.6-0.3c-2.3-1-3.6-1.5-6.1-1.4c-1.3,0.1-2.8,0.5-3.9,1.2
				c-1.4,0.8-2.6,1.7-3.5,3.1c-1,1.4-2,2.2-3.8,1.6c-3.7-1.4-1.9-6.7,2.1-5.6c2.5,0.7,3.8,0.3,6.2-0.4c0.2-0.1,0.4-0.1,0.5-0.2
				c4.2-2,4.8-4.4,6.5-8.4C17.8,27.6,18.1,26.7,18.5,25.8z"/>
		</g>
		<g>
			<path class="st0" d="M85.9,42.7l-3.2-4.8h-0.9l0,4.8h-1.8V31h0.4c1.1,0,2.2,0,3.3,0h0c2.2,0.1,3.9,1.8,3.5,4.1
				c-0.3,1.3-1.2,2.3-2.5,2.6l2.8,4l4.4-10.7h1.7l4.9,11.8h-1.9l-1.2-2.9h-5.3L89,42.7L85.9,42.7z M136.7,42.4v0.3h-7V30.9h7v1.7
				h-5.2v3.1h4.4v1.7h-4.4V41h5.1v-0.5l0.5,0.2c0.2,0.1,0.3,0.1,0.5,0.2c0.2,0.1,0.3,0.1,0.5,0.1c0.9,0.2,1.7,0.3,2.5-0.1
				c1.3-0.7,1.3-2.1,0.1-2.9c-0.5-0.3-1-0.6-1.5-0.8c-1.2-0.5-2.2-1.2-2.6-2.5l0-0.1v0c-0.3-1.2,0.2-2.3,1.1-3l0,0l0,0
				c1.4-1,2.8-1,4.4-0.7h0c0.2,0,0.4,0.1,0.6,0.2l0.2,0.1v1.9l-0.9-0.4c-0.3-0.1-0.7-0.2-1-0.2c-1.1-0.1-2.1-0.1-2.6,1.1
				c-0.2,0.6,0.2,1.1,0.6,1.4c0.6,0.4,1.2,0.7,1.9,1l0.1,0.1h0c1.6,0.8,2.8,2.2,2.5,4.1c-0.3,1.6-1.7,2.4-3.2,2.7l0,0l0,0
				c-1.1,0.1-2.2,0-3.2-0.3L136.7,42.4z M126.4,30.9h1.8v11.7h-1.8V30.9z M101.7,32.7v10h-1.8v-10h-4v-1.8h9.8v1.8H101.7z
				 M78.3,39.7c-1,1.7-2.3,2.8-4.3,3.1c-1.2,0.2-2.5,0-3.6-0.5c-1-0.5-1.8-1.2-2.4-2.1l0,0l0,0c-1.7-2.8-1.2-6.5,1.5-8.4h0l0,0
				c1.5-1,3.2-1.3,5-0.8h0c1.3,0.4,2.5,1.1,3.3,2.3c0.8,1.2,1.1,2.6,1.1,4C78.9,38.1,78.7,38.9,78.3,39.7L78.3,39.7
				C78.3,39.7,78.3,39.7,78.3,39.7z M65,36.6c0.1,0,0.2,0.1,0.3,0.1c0.5,0.2,0.8,0.6,1,1c0.6,1,0.6,2.4-0.1,3.4
				c-0.7,0.9-1.7,1.5-2.8,1.6l0,0h-4.3V30.9h3.7c1.3,0.1,2.1,0.3,3,1.4c0.8,0.9,0.8,2.2,0.3,3.3c-0.1,0.2-0.3,0.4-0.4,0.6
				C65.4,36.3,65.2,36.4,65,36.6L65,36.6z M43.2,41h4.8l4.2-10.1h1.7l4.9,11.8h-1.9l-1.2-2.9h-5.3l-1.2,2.9h-7.9V31h1.8V41z
				 M116,39.7c-1,1.7-2.3,2.8-4.3,3.1c-1.2,0.2-2.5,0-3.6-0.5c-1-0.5-1.8-1.2-2.4-2.1l0,0l0,0c-1.7-2.8-1.2-6.5,1.5-8.4h0l0,0
				c1.5-1,3.2-1.3,5-0.8h0c1.3,0.4,2.5,1.1,3.3,2.3c0.8,1.2,1.1,2.6,1.1,4C116.6,38.1,116.4,38.9,116,39.7L116,39.7
				C116,39.7,116,39.7,116,39.7z M122.2,37.7l3.6,5h-2.3l-3.2-4.8h-1l0,4.8h-1.8V31h0.4c1.1,0,2.2,0,3.3,0h0
				c2.2,0.1,3.9,1.8,3.5,4.1C124.4,36.4,123.5,37.4,122.2,37.7L122.2,37.7z M94.7,38.2l-2-5l-2.1,5H94.7z M81.7,36.2h2
				c1.3-0.1,1.7-1.2,1.5-2.4c-0.3-1-1-1.3-2-1.2c-0.5,0-1,0-1.5,0V36.2z M72.4,32.5c-1.2,0.2-2.1,0.8-2.8,1.8
				c-0.6,1-0.9,2.2-0.6,3.4c0.3,1.2,1,2.4,2.1,3c0.9,0.5,1.8,0.6,2.8,0.4c1.1-0.2,1.9-0.8,2.5-1.8c0.8-1.3,0.9-3,0.3-4.4
				C76,33.2,74.3,32.3,72.4,32.5z M60.8,37.5V41c0.8,0,1.6,0,2.5,0c1.1,0,1.9-1.4,1.5-2.4c-0.3-0.8-0.9-1.1-1.8-1.1
				C63,37.5,60.8,37.5,60.8,37.5z M60.9,32.6v3.3c0.8,0,1.5,0,2.3,0c0.5,0,0.9-0.3,1.2-0.7c0.3-0.4,0.3-0.9,0.2-1.4
				c-0.2-0.8-0.8-1.1-1.6-1.2c-0.4,0-0.9,0-1.3,0h0C61.4,32.6,61.1,32.6,60.9,32.6L60.9,32.6z M55,38.2l-2-5l-2.1,5H55z M110.1,32.5
				c-1.2,0.1-2.1,0.8-2.8,1.8c-0.6,1-0.9,2.2-0.6,3.4c0.3,1.2,1,2.4,2.1,3c0.9,0.5,1.8,0.6,2.8,0.4c1.1-0.2,1.9-0.8,2.5-1.8
				c0.8-1.3,0.9-3,0.3-4.4C113.7,33.2,112,32.3,110.1,32.5L110.1,32.5z M119.3,36.2h2c1.3-0.1,1.7-1.2,1.5-2.4c-0.3-1-1-1.3-2-1.2
				c-0.5,0-1,0-1.5,0L119.3,36.2L119.3,36.2z"/>
		</g>
		<g>
			<path class="st0" d="M85.9,42.7l-3.2-4.8h-0.9l0,4.8h-1.8V31h0.4c1.1,0,2.2,0,3.3,0h0c2.2,0.1,3.9,1.8,3.5,4.1
				c-0.3,1.3-1.2,2.3-2.5,2.6l2.8,4l4.4-10.7h1.7l4.9,11.8h-1.9l-1.2-2.9h-5.3L89,42.7L85.9,42.7z M136.7,42.4v0.3h-7V30.9h7v1.7
				h-5.2v3.1h4.4v1.7h-4.4V41h5.1v-0.5l0.5,0.2c0.2,0.1,0.3,0.1,0.5,0.2c0.2,0.1,0.3,0.1,0.5,0.1c0.9,0.2,1.7,0.3,2.5-0.1
				c1.3-0.7,1.3-2.1,0.1-2.9c-0.5-0.3-1-0.6-1.5-0.8c-1.2-0.5-2.2-1.2-2.6-2.5l0-0.1v0c-0.3-1.2,0.2-2.3,1.1-3l0,0l0,0
				c1.4-1,2.8-1,4.4-0.7h0c0.2,0,0.4,0.1,0.6,0.2l0.2,0.1v1.9l-0.9-0.4c-0.3-0.1-0.7-0.2-1-0.2c-1.1-0.1-2.1-0.1-2.6,1.1
				c-0.2,0.6,0.2,1.1,0.6,1.4c0.6,0.4,1.2,0.7,1.9,1l0.1,0.1h0c1.6,0.8,2.8,2.2,2.5,4.1c-0.3,1.6-1.7,2.4-3.2,2.7l0,0l0,0
				c-1.1,0.1-2.2,0-3.2-0.3L136.7,42.4z M126.4,30.9h1.8v11.7h-1.8V30.9z M101.7,32.7v10h-1.8v-10h-4v-1.8h9.8v1.8H101.7z
				 M78.3,39.7c-1,1.7-2.3,2.8-4.3,3.1c-1.2,0.2-2.5,0-3.6-0.5c-1-0.5-1.8-1.2-2.4-2.1l0,0l0,0c-1.7-2.8-1.2-6.5,1.5-8.4h0l0,0
				c1.5-1,3.2-1.3,5-0.8h0c1.3,0.4,2.5,1.1,3.3,2.3c0.8,1.2,1.1,2.6,1.1,4C78.9,38.1,78.7,38.9,78.3,39.7L78.3,39.7
				C78.3,39.7,78.3,39.7,78.3,39.7z M65,36.6c0.1,0,0.2,0.1,0.3,0.1c0.5,0.2,0.8,0.6,1,1c0.6,1,0.6,2.4-0.1,3.4
				c-0.7,0.9-1.7,1.5-2.8,1.6l0,0h-4.3V30.9h3.7c1.3,0.1,2.1,0.3,3,1.4c0.8,0.9,0.8,2.2,0.3,3.3c-0.1,0.2-0.3,0.4-0.4,0.6
				C65.4,36.3,65.2,36.4,65,36.6L65,36.6z M43.2,41h4.8l4.2-10.1h1.7l4.9,11.8h-1.9l-1.2-2.9h-5.3l-1.2,2.9h-7.9V31h1.8V41z
				 M116,39.7c-1,1.7-2.3,2.8-4.3,3.1c-1.2,0.2-2.5,0-3.6-0.5c-1-0.5-1.8-1.2-2.4-2.1l0,0l0,0c-1.7-2.8-1.2-6.5,1.5-8.4h0l0,0
				c1.5-1,3.2-1.3,5-0.8h0c1.3,0.4,2.5,1.1,3.3,2.3c0.8,1.2,1.1,2.6,1.1,4C116.6,38.1,116.4,38.9,116,39.7L116,39.7
				C116,39.7,116,39.7,116,39.7z M122.2,37.7l3.6,5h-2.3l-3.2-4.8h-1l0,4.8h-1.8V31h0.4c1.1,0,2.2,0,3.3,0h0
				c2.2,0.1,3.9,1.8,3.5,4.1C124.4,36.4,123.5,37.4,122.2,37.7L122.2,37.7z M94.7,38.2l-2-5l-2.1,5H94.7z M81.7,36.2h2
				c1.3-0.1,1.7-1.2,1.5-2.4c-0.3-1-1-1.3-2-1.2c-0.5,0-1,0-1.5,0V36.2z M72.4,32.5c-1.2,0.2-2.1,0.8-2.8,1.8
				c-0.6,1-0.9,2.2-0.6,3.4c0.3,1.2,1,2.4,2.1,3c0.9,0.5,1.8,0.6,2.8,0.4c1.1-0.2,1.9-0.8,2.5-1.8c0.8-1.3,0.9-3,0.3-4.4
				C76,33.2,74.3,32.3,72.4,32.5z M60.8,37.5V41c0.8,0,1.6,0,2.5,0c1.1,0,1.9-1.4,1.5-2.4c-0.3-0.8-0.9-1.1-1.8-1.1
				C63,37.5,60.8,37.5,60.8,37.5z M60.9,32.6v3.3c0.8,0,1.5,0,2.3,0c0.5,0,0.9-0.3,1.2-0.7c0.3-0.4,0.3-0.9,0.2-1.4
				c-0.2-0.8-0.8-1.1-1.6-1.2c-0.4,0-0.9,0-1.3,0h0C61.4,32.6,61.1,32.6,60.9,32.6L60.9,32.6z M55,38.2l-2-5l-2.1,5H55z M110.1,32.5
				c-1.2,0.1-2.1,0.8-2.8,1.8c-0.6,1-0.9,2.2-0.6,3.4c0.3,1.2,1,2.4,2.1,3c0.9,0.5,1.8,0.6,2.8,0.4c1.1-0.2,1.9-0.8,2.5-1.8
				c0.8-1.3,0.9-3,0.3-4.4C113.7,33.2,112,32.3,110.1,32.5L110.1,32.5z M119.3,36.2h2c1.3-0.1,1.7-1.2,1.5-2.4c-0.3-1-1-1.3-2-1.2
				c-0.5,0-1,0-1.5,0L119.3,36.2L119.3,36.2z"/>
			<path class="st2" d="M85.9,42.7l-3.2-4.8h-0.9l0,4.8h-1.8V31h0.4c1.1,0,2.2,0,3.3,0h0c2.2,0.1,3.9,1.8,3.5,4.1
				c-0.3,1.3-1.2,2.3-2.5,2.6l2.8,4l4.4-10.7h1.7l4.9,11.8h-1.9l-1.2-2.9h-5.3L89,42.7L85.9,42.7z M136.7,42.4v0.3h-7V30.9h7v1.7
				h-5.2v3.1h4.4v1.7h-4.4V41h5.1v-0.5l0.5,0.2c0.2,0.1,0.3,0.1,0.5,0.2c0.2,0.1,0.3,0.1,0.5,0.1c0.9,0.2,1.7,0.3,2.5-0.1
				c1.3-0.7,1.3-2.1,0.1-2.9c-0.5-0.3-1-0.6-1.5-0.8c-1.2-0.5-2.2-1.2-2.6-2.5l0-0.1v0c-0.3-1.2,0.2-2.3,1.1-3l0,0l0,0
				c1.4-1,2.8-1,4.4-0.7h0c0.2,0,0.4,0.1,0.6,0.2l0.2,0.1v1.9l-0.9-0.4c-0.3-0.1-0.7-0.2-1-0.2c-1.1-0.1-2.1-0.1-2.6,1.1
				c-0.2,0.6,0.2,1.1,0.6,1.4c0.6,0.4,1.2,0.7,1.9,1l0.1,0.1h0c1.6,0.8,2.8,2.2,2.5,4.1c-0.3,1.6-1.7,2.4-3.2,2.7l0,0l0,0
				c-1.1,0.1-2.2,0-3.2-0.3L136.7,42.4z M126.4,30.9h1.8v11.7h-1.8V30.9z M101.7,32.7v10h-1.8v-10h-4v-1.8h9.8v1.8H101.7z
				 M78.3,39.7c-1,1.7-2.3,2.8-4.3,3.1c-1.2,0.2-2.5,0-3.6-0.5c-1-0.5-1.8-1.2-2.4-2.1l0,0l0,0c-1.7-2.8-1.2-6.5,1.5-8.4h0l0,0
				c1.5-1,3.2-1.3,5-0.8h0c1.3,0.4,2.5,1.1,3.3,2.3c0.8,1.2,1.1,2.6,1.1,4C78.9,38.1,78.7,38.9,78.3,39.7L78.3,39.7
				C78.3,39.7,78.3,39.7,78.3,39.7z M65,36.6c0.1,0,0.2,0.1,0.3,0.1c0.5,0.2,0.8,0.6,1,1c0.6,1,0.6,2.4-0.1,3.4
				c-0.7,0.9-1.7,1.5-2.8,1.6l0,0h-4.3V30.9h3.7c1.3,0.1,2.1,0.3,3,1.4c0.8,0.9,0.8,2.2,0.3,3.3c-0.1,0.2-0.3,0.4-0.4,0.6
				C65.4,36.3,65.2,36.4,65,36.6L65,36.6z M43.2,41h4.8l4.2-10.1h1.7l4.9,11.8h-1.9l-1.2-2.9h-5.3l-1.2,2.9h-7.9V31h1.8V41z
				 M116,39.7c-1,1.7-2.3,2.8-4.3,3.1c-1.2,0.2-2.5,0-3.6-0.5c-1-0.5-1.8-1.2-2.4-2.1l0,0l0,0c-1.7-2.8-1.2-6.5,1.5-8.4h0l0,0
				c1.5-1,3.2-1.3,5-0.8h0c1.3,0.4,2.5,1.1,3.3,2.3c0.8,1.2,1.1,2.6,1.1,4C116.6,38.1,116.4,38.9,116,39.7L116,39.7
				C116,39.7,116,39.7,116,39.7z M122.2,37.7l3.6,5h-2.3l-3.2-4.8h-1l0,4.8h-1.8V31h0.4c1.1,0,2.2,0,3.3,0h0
				c2.2,0.1,3.9,1.8,3.5,4.1C124.4,36.4,123.5,37.4,122.2,37.7L122.2,37.7z M94.7,38.2l-2-5l-2.1,5H94.7z M81.7,36.2h2
				c1.3-0.1,1.7-1.2,1.5-2.4c-0.3-1-1-1.3-2-1.2c-0.5,0-1,0-1.5,0V36.2z M72.4,32.5c-1.2,0.2-2.1,0.8-2.8,1.8
				c-0.6,1-0.9,2.2-0.6,3.4c0.3,1.2,1,2.4,2.1,3c0.9,0.5,1.8,0.6,2.8,0.4c1.1-0.2,1.9-0.8,2.5-1.8c0.8-1.3,0.9-3,0.3-4.4
				C76,33.2,74.3,32.3,72.4,32.5z M60.8,37.5V41c0.8,0,1.6,0,2.5,0c1.1,0,1.9-1.4,1.5-2.4c-0.3-0.8-0.9-1.1-1.8-1.1
				C63,37.5,60.8,37.5,60.8,37.5z M60.9,32.6v3.3c0.8,0,1.5,0,2.3,0c0.5,0,0.9-0.3,1.2-0.7c0.3-0.4,0.3-0.9,0.2-1.4
				c-0.2-0.8-0.8-1.1-1.6-1.2c-0.4,0-0.9,0-1.3,0h0C61.4,32.6,61.1,32.6,60.9,32.6L60.9,32.6z M55,38.2l-2-5l-2.1,5H55z M110.1,32.5
				c-1.2,0.1-2.1,0.8-2.8,1.8c-0.6,1-0.9,2.2-0.6,3.4c0.3,1.2,1,2.4,2.1,3c0.9,0.5,1.8,0.6,2.8,0.4c1.1-0.2,1.9-0.8,2.5-1.8
				c0.8-1.3,0.9-3,0.3-4.4C113.7,33.2,112,32.3,110.1,32.5L110.1,32.5z M119.3,36.2h2c1.3-0.1,1.7-1.2,1.5-2.4c-0.3-1-1-1.3-2-1.2
				c-0.5,0-1,0-1.5,0L119.3,36.2L119.3,36.2z"/>
		</g>
	</g>
</g>
</svg>
