<svg xmlns="http://www.w3.org/2000/svg" width="157" height="56" viewBox="0 0 157 56"><g><g><g><path fill="#fff" d="M44.184 10.206h6.92V30.41h15.685v-4.095l-9.501-16.11h7.953l4.992 10.512 4.834-10.388h17.7l10.155 17.31h.225V10.302h6.954v11.68h.212l8.442-11.779h8.23l-9.319 11.829 6.474 8.76c4.168 0 8.338.023 12.505.007 1.052-.005 2.278-.526 2.664-1.59.462-1.584-.635-2.445-1.848-3.248-2.327-1.545-4.403-1.35-6.826-3.437-.928-.798-1.309-1.62-1.651-2.776-1.055-4.13 1.716-8.016 5.754-8.962 2.677-.63 5.274-.52 7.974-.142.785.116 1.35.319 2.102.503v5.12c-2.112-1.062-6.075-1.92-8.172-.546-1.192.889-1.07 1.977-.121 3.006 1.425 1.548 4.37 1.908 6.238 3.035 1.855 1.15 3.074 2.61 3.496 4.8.956 5.58-4.364 9.076-9.366 9.014-5.87-.073-11.821 0-17.699.008h-.223l-8.656-12.998h-.213v13.042h-9.57L90.255 18.116V35.62l-6.29.008V15.467H79.94l-6.352 10.846v9.307H44.184z"/><path fill="none" stroke="#fff" stroke-miterlimit="20" d="M44.184 10.206v0h6.92V30.41h15.685v0-4.095 0l-9.501-16.11v0h7.953v0l4.992 10.512v0l4.834-10.388v0h17.7v0l10.155 17.31v0h.225v0-17.338 0h6.954v11.68h.212v0l8.442-11.779v0h8.23v0l-9.319 11.829v0l6.474 8.76c4.168 0 8.338.023 12.505.007 1.052-.005 2.278-.526 2.664-1.59.462-1.584-.635-2.445-1.848-3.248-2.327-1.545-4.403-1.35-6.826-3.437-.928-.798-1.309-1.62-1.651-2.776-1.055-4.13 1.716-8.016 5.754-8.962 2.677-.63 5.274-.52 7.974-.142.785.116 1.35.319 2.102.503v5.12c-2.112-1.062-6.075-1.92-8.172-.546-1.192.889-1.07 1.977-.121 3.006 1.425 1.548 4.37 1.908 6.238 3.035 1.855 1.15 3.074 2.61 3.496 4.8.956 5.58-4.364 9.076-9.366 9.014-5.87-.073-11.821 0-17.699.008h-.223v0l-8.656-12.998v0h-.213v13.042h-9.57v0L90.255 18.116V35.62l-6.29.008v0-20.161 0H79.94v0l-6.352 10.846v9.307H44.184v0z"/></g><g><path fill="none" stroke="#fff" stroke-miterlimit="20" stroke-width=".22" d="M44.184 10.206v0h6.92V30.41h15.685v0-4.095 0l-9.501-16.11v0h7.953v0l4.992 10.512v0l4.834-10.388v0h17.7v0l10.155 17.31v0h.225v0-17.338 0h6.954v11.68h.212v0l8.442-11.779v0h8.23v0l-9.319 11.829v0l6.474 8.76c4.168 0 8.338.023 12.505.007 1.052-.005 2.278-.526 2.664-1.59.462-1.584-.635-2.445-1.848-3.248-2.327-1.545-4.403-1.35-6.826-3.437-.928-.798-1.309-1.62-1.651-2.776-1.055-4.13 1.716-8.016 5.754-8.962 2.677-.63 5.274-.52 7.974-.142.785.116 1.35.319 2.102.503v5.12c-2.112-1.062-6.075-1.92-8.172-.546-1.192.889-1.07 1.977-.121 3.006 1.425 1.548 4.37 1.908 6.238 3.035 1.855 1.15 3.074 2.61 3.496 4.8.956 5.58-4.364 9.076-9.366 9.014-5.87-.073-11.821 0-17.699.008h-.223v0l-8.656-12.998v0h-.213v13.042h-9.57v0L90.255 18.116V35.62l-6.29.008v0-20.161 0H79.94v0l-6.352 10.846v9.307H44.184v0z"/></g><g><path fill="#ff3232" d="M21.406 35.468c.764-1.997.088-3.156-.449-5.086-.482-1.77-1.26-5.389-2.096-6.838-1.574-2.521-3.134-2.671-5.153-4.583-2.114-2.054-3.016-4.154-1.233-6.792 2.078-2.767 5.994-2.928 8.156-.249 2.737 3.39-1.542 7.002.052 11.17l.095.246c.89 2.16 1.877 4.284 2.828 6.419.886 1.88 2.649 3.29 4.61 3.924 2.162.695 3.577 1.276 4.997 3.182 2.709 3.999 2.045 9.224-2.203 11.787-2.985 1.727-5.704 1.05-8.645-.299-2.289-1.045-3.58-1.504-6.148-1.395-1.265.101-2.768.53-3.872 1.154-1.436.82-2.581 1.699-3.548 3.058-.995 1.374-1.988 2.233-3.781 1.647-3.673-1.38-1.936-6.715 2.073-5.6 2.478.66 3.846.345 6.16-.435.198-.068.353-.127.542-.208 4.204-2.028 4.774-4.416 6.482-8.405.381-.9.76-1.797 1.133-2.697z"/></g><g><path fill="none" stroke="#e30016" stroke-miterlimit="20" stroke-width=".22" d="M21.406 35.468c.764-1.997.088-3.156-.449-5.086-.482-1.77-1.26-5.389-2.096-6.838-1.574-2.521-3.134-2.671-5.153-4.583-2.114-2.054-3.016-4.154-1.233-6.792 2.078-2.767 5.994-2.928 8.156-.249 2.737 3.39-1.542 7.002.052 11.17l.095.246c.89 2.16 1.877 4.284 2.828 6.419.886 1.88 2.649 3.29 4.61 3.924 2.162.695 3.577 1.276 4.997 3.182 2.709 3.999 2.045 9.224-2.203 11.787-2.985 1.727-5.704 1.05-8.645-.299-2.289-1.045-3.58-1.504-6.148-1.395-1.265.101-2.768.53-3.872 1.154-1.436.82-2.581 1.699-3.548 3.058-.995 1.374-1.988 2.233-3.781 1.647-3.673-1.38-1.936-6.715 2.073-5.6 2.478.66 3.846.345 6.16-.435.198-.068.353-.127.542-.208 4.204-2.028 4.774-4.416 6.482-8.405.381-.9.76-1.797 1.133-2.697z"/></g><g><path fill="#fff" d="M88.748 52.362l-3.211-4.805h-.949l-.002 4.805h-1.783V40.655h.388c1.086 0 2.175-.018 3.26-.005h.006c2.24.065 3.942 1.793 3.48 4.139-.264 1.35-1.207 2.278-2.459 2.579l2.84 3.96 4.435-10.678h1.739l4.862 11.756h-1.895l-1.181-2.929h-5.285l-1.138 2.885zm50.81-.257v.26h-6.969V40.646h6.969v1.693h-5.194v3.11h4.39v1.713h-4.39v3.53h5.132v-.5l.534.22c.158.065.316.134.474.189.16.054.327.09.49.127.891.187 1.653.26 2.522-.07 1.306-.658 1.314-2.097.137-2.916-.464-.324-1.008-.56-1.516-.8-1.156-.547-2.232-1.151-2.626-2.483l-.036-.125v-.005c-.332-1.22.169-2.255 1.11-3.009l.002-.002.003-.003c1.363-1.045 2.788-1.024 4.382-.669h.003c.186.042.394.145.575.218l.246.098v1.89l-.95-.423a10.57 10.57 0 0 0-1.02-.204c-1.057-.148-2.122-.073-2.591 1.06-.244.588.163 1.057.614 1.381.599.425 1.223.674 1.869 1.003l.119.06h.003c1.555.821 2.804 2.202 2.451 4.113-.295 1.606-1.697 2.41-3.156 2.698l-.016.002-.015.003a7.924 7.924 0 0 1-3.237-.342zm-10.222-11.478h1.776v11.737h-1.776zm-24.786 1.751V52.39h-1.752V42.378h-4.04v-1.757h9.8v1.757zm-23.372 7.019c-.964 1.734-2.302 2.843-4.264 3.143a6.101 6.101 0 0 1-3.563-.523 5.82 5.82 0 0 1-2.356-2.084l-.005-.005-.003-.005c-1.661-2.755-1.207-6.52 1.514-8.387h.002l.003-.002c1.5-.998 3.24-1.275 4.973-.84h.006c1.342.358 2.526 1.12 3.34 2.275.82 1.161 1.148 2.564 1.058 3.984-.057.886-.29 1.653-.7 2.436l-.003.005-.002.003zM67.867 46.26c.111.041.218.088.321.14.456.23.762.57 1.01 1.018.566 1.024.618 2.434-.113 3.388-.713.927-1.659 1.505-2.817 1.596l-.016.003h-4.281V40.588h3.724c1.278.09 2.112.331 2.97 1.36.75.9.811 2.245.277 3.266a2.208 2.208 0 0 1-.435.567c-.192.19-.412.342-.64.48zm-21.82 4.458h4.79l4.18-10.067h1.742l4.862 11.754h-1.895l-1.184-2.929H53.26l-1.158 2.929h-7.905V40.655h1.85zm72.806-1.317c-.964 1.734-2.301 2.843-4.263 3.144a6.1 6.1 0 0 1-3.564-.524 5.82 5.82 0 0 1-2.356-2.084l-.005-.005-.002-.005c-1.662-2.755-1.208-6.52 1.513-8.387h.003l.002-.002c1.5-.995 3.24-1.278 4.974-.84h.005c1.342.358 2.527 1.12 3.34 2.276.82 1.16 1.149 2.563 1.058 3.983a5.886 5.886 0 0 1-.7 2.436l-.002.005-.003.003zm6.285-2.027l3.582 4.992h-2.312l-3.211-4.805h-.951l-.003 4.805h-1.783V40.66h.389c1.086 0 2.174-.018 3.26-.005h.008c2.239.065 3.942 1.793 3.48 4.142-.264 1.35-1.207 2.278-2.46 2.578zm-27.526.526l-1.978-4.994-2.096 4.994zM84.578 45.92h2.027c1.262-.114 1.728-1.182 1.474-2.359-.264-1.042-1.034-1.254-1.998-1.23-.5.012-1.003.012-1.503.012v3.577zm-9.276-3.753c-1.202.15-2.086.79-2.755 1.806a4.59 4.59 0 0 0-.606 3.424c.306 1.22.987 2.382 2.07 3.032.861.519 1.83.622 2.797.407 1.052-.233 1.944-.824 2.527-1.752.822-1.303.855-2.97.3-4.388-.754-1.834-2.428-2.69-4.333-2.529zm-11.564 5.002v3.571c.817.005 1.636.021 2.452 0 1.122-.026 1.949-1.376 1.503-2.426-.35-.826-.933-1.124-1.79-1.145h-2.165zm.013-4.88v3.26c.76.008 1.522.031 2.278-.002a1.446 1.446 0 0 0 1.185-.687 1.83 1.83 0 0 0 .236-1.39c-.187-.782-.838-1.142-1.584-1.189-.43-.028-.87.003-1.301.005h-.003c-.272.003-.541.003-.81.003zM57.876 47.9l-1.978-4.994-2.094 4.994zm55.1-5.73c-1.203.148-2.087.79-2.756 1.804a4.592 4.592 0 0 0-.606 3.424c.306 1.22.987 2.381 2.07 3.032.86.518 1.828.622 2.797.407 1.052-.233 1.944-.822 2.527-1.75.821-1.306.855-2.97.3-4.387-.754-1.835-2.428-2.693-4.333-2.53zm9.262 3.753h2.027c1.262-.117 1.726-1.18 1.474-2.359-.262-1.041-1.034-1.254-1.995-1.23-.5.012-1.003.012-1.504.012v3.577z"/></g><g><path fill="#fff" d="M88.748 52.362l-3.211-4.805h-.949l-.002 4.805h-1.783V40.655h.388c1.086 0 2.175-.018 3.26-.005h.006c2.24.065 3.942 1.793 3.48 4.139-.264 1.35-1.207 2.278-2.459 2.579l2.84 3.96 4.435-10.678h1.739l4.862 11.756h-1.895l-1.181-2.929h-5.285l-1.138 2.885zm50.81-.257v.26h-6.969V40.646h6.969v1.693h-5.194v3.11h4.39v1.713h-4.39v3.53h5.132v-.5l.534.22c.158.065.316.134.474.189.16.054.327.09.49.127.891.187 1.653.26 2.522-.07 1.306-.658 1.314-2.097.137-2.916-.464-.324-1.008-.56-1.516-.8-1.156-.547-2.232-1.151-2.626-2.483l-.036-.125v-.005c-.332-1.22.169-2.255 1.11-3.009l.002-.002.003-.003c1.363-1.045 2.788-1.024 4.382-.669h.003c.186.042.394.145.575.218l.246.098v1.89l-.95-.423a10.57 10.57 0 0 0-1.02-.204c-1.057-.148-2.122-.073-2.591 1.06-.244.588.163 1.057.614 1.381.599.425 1.223.674 1.869 1.003l.119.06h.003c1.555.821 2.804 2.202 2.451 4.113-.295 1.606-1.697 2.41-3.156 2.698l-.016.002-.015.003a7.924 7.924 0 0 1-3.237-.342zm-10.222-11.478h1.776v11.737h-1.776zm-24.786 1.751V52.39h-1.752V42.378h-4.04v-1.757h9.8v1.757zm-23.372 7.019c-.964 1.734-2.302 2.843-4.264 3.143a6.101 6.101 0 0 1-3.563-.523 5.82 5.82 0 0 1-2.356-2.084l-.005-.005-.003-.005c-1.661-2.755-1.207-6.52 1.514-8.387h.002l.003-.002c1.5-.998 3.24-1.275 4.973-.84h.006c1.342.358 2.526 1.12 3.34 2.275.82 1.161 1.148 2.564 1.058 3.984-.057.886-.29 1.653-.7 2.436l-.003.005-.002.003zM67.867 46.26c.111.041.218.088.321.14.456.23.762.57 1.01 1.018.566 1.024.618 2.434-.113 3.388-.713.927-1.659 1.505-2.817 1.596l-.016.003h-4.281V40.588h3.724c1.278.09 2.112.331 2.97 1.36.75.9.811 2.245.277 3.266a2.208 2.208 0 0 1-.435.567c-.192.19-.412.342-.64.48zm-21.82 4.458h4.79l4.18-10.067h1.742l4.862 11.754h-1.895l-1.184-2.929H53.26l-1.158 2.929h-7.905V40.655h1.85zm72.806-1.317c-.964 1.734-2.301 2.843-4.263 3.144a6.1 6.1 0 0 1-3.564-.524 5.82 5.82 0 0 1-2.356-2.084l-.005-.005-.002-.005c-1.662-2.755-1.208-6.52 1.513-8.387h.003l.002-.002c1.5-.995 3.24-1.278 4.974-.84h.005c1.342.358 2.527 1.12 3.34 2.276.82 1.16 1.149 2.563 1.058 3.983a5.886 5.886 0 0 1-.7 2.436l-.002.005-.003.003zm6.285-2.027l3.582 4.992h-2.312l-3.211-4.805h-.951l-.003 4.805h-1.783V40.66h.389c1.086 0 2.174-.018 3.26-.005h.008c2.239.065 3.942 1.793 3.48 4.142-.264 1.35-1.207 2.278-2.46 2.578zm-27.526.526l-1.978-4.994-2.096 4.994zM84.578 45.92h2.027c1.262-.114 1.728-1.182 1.474-2.359-.264-1.042-1.034-1.254-1.998-1.23-.5.012-1.003.012-1.503.012v3.577zm-9.276-3.753c-1.202.15-2.086.79-2.755 1.806a4.59 4.59 0 0 0-.606 3.424c.306 1.22.987 2.382 2.07 3.032.861.519 1.83.622 2.797.407 1.052-.233 1.944-.824 2.527-1.752.822-1.303.855-2.97.3-4.388-.754-1.834-2.428-2.69-4.333-2.529zm-11.564 5.002v3.571c.817.005 1.636.021 2.452 0 1.122-.026 1.949-1.376 1.503-2.426-.35-.826-.933-1.124-1.79-1.145h-2.165zm.013-4.88v3.26c.76.008 1.522.031 2.278-.002a1.446 1.446 0 0 0 1.185-.687 1.83 1.83 0 0 0 .236-1.39c-.187-.782-.838-1.142-1.584-1.189-.43-.028-.87.003-1.301.005h-.003c-.272.003-.541.003-.81.003zM57.876 47.9l-1.978-4.994-2.094 4.994zm55.1-5.73c-1.203.148-2.087.79-2.756 1.804a4.592 4.592 0 0 0-.606 3.424c.306 1.22.987 2.381 2.07 3.032.86.518 1.828.622 2.797.407 1.052-.233 1.944-.822 2.527-1.75.821-1.306.855-2.97.3-4.387-.754-1.835-2.428-2.693-4.333-2.53zm9.262 3.753h2.027c1.262-.117 1.726-1.18 1.474-2.359-.262-1.041-1.034-1.254-1.995-1.23-.5.012-1.003.012-1.504.012v3.577z"/><path fill="none" stroke="#fff" stroke-miterlimit="20" stroke-width=".22" d="M88.748 52.362l-3.211-4.805h-.949l-.002 4.805h-1.783V40.655h.388c1.086 0 2.175-.018 3.26-.005h.006c2.24.065 3.942 1.793 3.48 4.139-.264 1.35-1.207 2.278-2.459 2.579l2.84 3.96 4.435-10.678h1.739l4.862 11.756h-1.895l-1.181-2.929h-5.285l-1.138 2.885zm50.81-.257v.26h-6.969V40.646h6.969v1.693h-5.194v3.11h4.39v1.713h-4.39v3.53h5.132v-.5l.534.22c.158.065.316.134.474.189.16.054.327.09.49.127.891.187 1.653.26 2.522-.07 1.306-.658 1.314-2.097.137-2.916-.464-.324-1.008-.56-1.516-.8-1.156-.547-2.232-1.151-2.626-2.483l-.036-.125v-.005c-.332-1.22.169-2.255 1.11-3.009l.002-.002.003-.003c1.363-1.045 2.788-1.024 4.382-.669h.003c.186.042.394.145.575.218l.246.098v1.89l-.95-.423a10.57 10.57 0 0 0-1.02-.204c-1.057-.148-2.122-.073-2.591 1.06-.244.588.163 1.057.614 1.381.599.425 1.223.674 1.869 1.003l.119.06h.003c1.555.821 2.804 2.202 2.451 4.113-.295 1.606-1.697 2.41-3.156 2.698l-.016.002-.015.003a7.924 7.924 0 0 1-3.237-.342zm-10.222-11.478h1.776v11.737h-1.776zm-24.786 1.751V52.39h-1.752V42.378h-4.04v-1.757h9.8v1.757zm-23.372 7.019c-.964 1.734-2.302 2.843-4.264 3.143a6.101 6.101 0 0 1-3.563-.523 5.82 5.82 0 0 1-2.356-2.084l-.005-.005-.003-.005c-1.661-2.755-1.207-6.52 1.514-8.387h.002l.003-.002c1.5-.998 3.24-1.275 4.973-.84h.006c1.342.358 2.526 1.12 3.34 2.275.82 1.161 1.148 2.564 1.058 3.984-.057.886-.29 1.653-.7 2.436l-.003.005-.002.003zM67.867 46.26c.111.041.218.088.321.14.456.23.762.57 1.01 1.018.566 1.024.618 2.434-.113 3.388-.713.927-1.659 1.505-2.817 1.596l-.016.003h-4.281V40.588h3.724c1.278.09 2.112.331 2.97 1.36.75.9.811 2.245.277 3.266a2.208 2.208 0 0 1-.435.567c-.192.19-.412.342-.64.48zm-21.82 4.458h4.79l4.18-10.067h1.742l4.862 11.754h-1.895l-1.184-2.929H53.26l-1.158 2.929h-7.905V40.655h1.85zm72.806-1.317c-.964 1.734-2.301 2.843-4.263 3.144a6.1 6.1 0 0 1-3.564-.524 5.82 5.82 0 0 1-2.356-2.084l-.005-.005-.002-.005c-1.662-2.755-1.208-6.52 1.513-8.387h.003l.002-.002c1.5-.995 3.24-1.278 4.974-.84h.005c1.342.358 2.527 1.12 3.34 2.276.82 1.16 1.149 2.563 1.058 3.983a5.886 5.886 0 0 1-.7 2.436l-.002.005-.003.003zm6.285-2.027l3.582 4.992h-2.312l-3.211-4.805h-.951l-.003 4.805h-1.783V40.66h.389c1.086 0 2.174-.018 3.26-.005h.008c2.239.065 3.942 1.793 3.48 4.142-.264 1.35-1.207 2.278-2.46 2.578zm-27.526.526l-1.978-4.994-2.096 4.994zM84.578 45.92h2.027c1.262-.114 1.728-1.182 1.474-2.359-.264-1.042-1.034-1.254-1.998-1.23-.5.012-1.003.012-1.503.012v3.577zm-9.276-3.753c-1.202.15-2.086.79-2.755 1.806a4.59 4.59 0 0 0-.606 3.424c.306 1.22.987 2.382 2.07 3.032.861.519 1.83.622 2.797.407 1.052-.233 1.944-.824 2.527-1.752.822-1.303.855-2.97.3-4.388-.754-1.834-2.428-2.69-4.333-2.529zm-11.564 5.002v3.571c.817.005 1.636.021 2.452 0 1.122-.026 1.949-1.376 1.503-2.426-.35-.826-.933-1.124-1.79-1.145h-2.165zm.013-4.88v3.26c.76.008 1.522.031 2.278-.002a1.446 1.446 0 0 0 1.185-.687 1.83 1.83 0 0 0 .236-1.39c-.187-.782-.838-1.142-1.584-1.189-.43-.028-.87.003-1.301.005h-.003c-.272.003-.541.003-.81.003zM57.876 47.9l-1.978-4.994-2.094 4.994zm55.1-5.73c-1.203.148-2.087.79-2.756 1.804a4.592 4.592 0 0 0-.606 3.424c.306 1.22.987 2.381 2.07 3.032.86.518 1.828.622 2.797.407 1.052-.233 1.944-.822 2.527-1.75.821-1.306.855-2.97.3-4.387-.754-1.835-2.428-2.693-4.333-2.53zm9.262 3.753h2.027c1.262-.117 1.726-1.18 1.474-2.359-.262-1.041-1.034-1.254-1.995-1.23-.5.012-1.003.012-1.504.012v3.577z"/></g></g></g></svg>