<?xml version="1.0" encoding="utf-8"?>
<!-- Generator: Adobe Illustrator 24.1.2, SVG Export Plug-In . SVG Version: 6.00 Build 0)  -->
<svg version="1.1" id="Layer_1" xmlns="http://www.w3.org/2000/svg" xmlns:xlink="http://www.w3.org/1999/xlink" x="0px" y="0px"
	 viewBox="0 0 312.3 77.9" style="enable-background:new 0 0 312.3 77.9;" xml:space="preserve">
<style type="text/css">
	.st0{fill:none;}
	.st1{fill-opacity:0.25;}
	.st2{fill:#F2312A;}
	.st3{fill:none;stroke:#F2312A;stroke-width:0.22;stroke-miterlimit:20;}
</style>
<g>
	<g>
		<g>
			<path class="st0" d="M0.1,0.1h21.1v61.7h47.9V49.3l-29-49.2h24.3l15.2,32.1L94.4,0.5h54.1l31,52.9h0.7v-53h21.2v35.7h0.6l25.8-36
				H253l-28.5,36.1L244.3,63c12.7,0,25.5,0.1,38.2,0c3.2,0,7-1.6,8.1-4.9c1.4-4.8-1.9-7.5-5.6-9.9c-7.1-4.7-13.4-4.1-20.8-10.5
				c-2.8-2.4-4-4.9-5-8.5c-3.2-12.6,5.2-24.5,17.6-27.4c8.2-1.9,16.1-1.6,24.4-0.4c2.4,0.4,4.1,1,6.4,1.5v15.6
				c-6.5-3.2-18.6-5.9-25-1.7c-3.6,2.7-3.3,6-0.4,9.2c4.4,4.7,13.3,5.8,19.1,9.3c5.7,3.5,9.4,8,10.7,14.7
				c2.9,17-13.3,27.7-28.6,27.5c-17.9-0.2-36.1,0-54.1,0h-0.7l-26.4-39.7h-0.6v39.8h-29.2l-31.4-53.5v53.5l-19.2,0V16.2h-12.3
				L89.9,49.3v28.4H0.1L0.1,0.1z"/>
			<path class="st1" d="M0.1,0.1h21.1v61.7h47.9V49.3l-29-49.2h24.3l15.2,32.1L94.4,0.5h54.1l31,52.9h0.7v-53h21.2v35.7h0.6l25.8-36
				H253l-28.5,36.1L244.3,63c12.7,0,25.5,0.1,38.2,0c3.2,0,7-1.6,8.1-4.9c1.4-4.8-1.9-7.5-5.6-9.9c-7.1-4.7-13.4-4.1-20.8-10.5
				c-2.8-2.4-4-4.9-5-8.5c-3.2-12.6,5.2-24.5,17.6-27.4c8.2-1.9,16.1-1.6,24.4-0.4c2.4,0.4,4.1,1,6.4,1.5v15.6
				c-6.5-3.2-18.6-5.9-25-1.7c-3.6,2.7-3.3,6-0.4,9.2c4.4,4.7,13.3,5.8,19.1,9.3c5.7,3.5,9.4,8,10.7,14.7
				c2.9,17-13.3,27.7-28.6,27.5c-17.9-0.2-36.1,0-54.1,0h-0.7l-26.4-39.7h-0.6v39.8h-29.2l-31.4-53.5v53.5l-19.2,0V16.2h-12.3
				L89.9,49.3v28.4H0.1L0.1,0.1z"/>
		</g>
		<path class="st2" d="M0.1,0.1h21.1v61.7h47.9V49.3l-29-49.2h24.3l15.2,32.1L94.4,0.5h54.1l31,52.9h0.7v-53h21.2v35.7h0.6l25.8-36
			H253l-28.5,36.1L244.3,63c12.7,0,25.5,0.1,38.2,0c3.2,0,7-1.6,8.1-4.9c1.4-4.8-1.9-7.5-5.6-9.9c-7.1-4.7-13.4-4.1-20.8-10.5
			c-2.8-2.4-4-4.9-5-8.5c-3.2-12.6,5.2-24.5,17.6-27.4c8.2-1.9,16.1-1.6,24.4-0.4c2.4,0.4,4.1,1,6.4,1.5v15.6
			c-6.5-3.2-18.6-5.9-25-1.7c-3.6,2.7-3.3,6-0.4,9.2c4.4,4.7,13.3,5.8,19.1,9.3c5.7,3.5,9.4,8,10.7,14.7c2.9,17-13.3,27.7-28.6,27.5
			c-17.9-0.2-36.1,0-54.1,0h-0.7l-26.4-39.7h-0.6v39.8h-29.2l-31.4-53.5v53.5l-19.2,0V16.2h-12.3L89.9,49.3v28.4H0.1L0.1,0.1z"/>
		<path class="st3" d="M0.1,0.1L0.1,0.1h21.1v61.7h47.9l0,0V49.3l0,0l-29-49.2l0,0h24.3l0,0l15.2,32.1l0,0L94.4,0.5l0,0h54.1l0,0
			l31,52.9l0,0h0.7l0,0v-53l0,0h21.2v35.7h0.6l0,0l25.8-36l0,0H253l0,0l-28.5,36.1l0,0L244.3,63c12.7,0,25.5,0.1,38.2,0
			c3.2,0,7-1.6,8.1-4.9c1.4-4.8-1.9-7.5-5.6-9.9c-7.1-4.7-13.4-4.1-20.8-10.5c-2.8-2.4-4-4.9-5-8.5c-3.2-12.6,5.2-24.5,17.6-27.4
			c8.2-1.9,16.1-1.6,24.4-0.4c2.4,0.4,4.1,1,6.4,1.5v15.6c-6.5-3.2-18.6-5.9-25-1.7c-3.6,2.7-3.3,6-0.4,9.2
			c4.4,4.7,13.3,5.8,19.1,9.3c5.7,3.5,9.4,8,10.7,14.7c2.9,17-13.3,27.7-28.6,27.5c-17.9-0.2-36.1,0-54.1,0h-0.7l0,0l-26.4-39.7l0,0
			h-0.6v39.8h-29.2l0,0l-31.4-53.5v53.5l-19.2,0l0,0V16.2l0,0h-12.3l0,0L89.9,49.3v28.4H0.1l0,0L0.1,0.1z"/>
	</g>
</g>
</svg>
