<svg xmlns="http://www.w3.org/2000/svg" width="727" height="961" viewBox="0 0 727 961"><g><g opacity=".22"><path fill="#fff" d="M415.645 563.789c16.019-41.813 1.846-66.087-9.395-106.488-10.1-37.09-26.391-112.842-43.93-143.197-32.963-52.783-65.653-55.932-107.956-95.954-44.31-43.008-63.208-86.993-25.848-142.22 43.551-57.94 125.603-61.307 170.892-5.212 57.344 70.974-32.31 146.618 1.086 233.883l2.01 5.158c18.625 45.235 39.315 89.71 59.244 134.4 18.572 39.37 55.498 68.911 96.605 82.16 45.289 14.554 74.938 26.718 104.697 66.63 56.746 83.736 42.845 193.157-46.158 246.808-62.557 36.166-119.521 21.993-181.155-6.245-47.95-21.884-74.993-31.495-128.807-29.215-26.5 2.118-57.996 11.078-81.129 24.165-30.084 17.16-54.086 35.569-74.34 64.023-20.853 28.78-41.651 46.755-79.23 34.483-76.947-28.89-40.564-140.59 43.443-117.24 51.914 13.792 80.586 7.222 129.079-9.123a157.952 157.952 0 0 0 11.35-4.345c88.079-42.465 100.026-92.478 135.811-175.996 7.983-18.843 15.91-37.632 23.73-56.475z"/><path fill="none" stroke="#fff" stroke-miterlimit="20" stroke-width="3" d="M415.645 563.789c16.019-41.813 1.846-66.087-9.395-106.488-10.1-37.09-26.391-112.842-43.93-143.197-32.963-52.783-65.653-55.932-107.956-95.954-44.31-43.008-63.208-86.993-25.848-142.22 43.551-57.94 125.603-61.307 170.892-5.212 57.344 70.974-32.31 146.618 1.086 233.883l2.01 5.158c18.625 45.235 39.315 89.71 59.244 134.4 18.572 39.37 55.498 68.911 96.605 82.16 45.289 14.554 74.938 26.718 104.697 66.63 56.746 83.736 42.845 193.157-46.158 246.808-62.557 36.166-119.521 21.993-181.155-6.245-47.95-21.884-74.993-31.495-128.807-29.215-26.5 2.118-57.996 11.078-81.129 24.165-30.084 17.16-54.086 35.569-74.34 64.023-20.853 28.78-41.651 46.755-79.23 34.483-76.947-28.89-40.564-140.59 43.443-117.24 51.914 13.792 80.586 7.222 129.079-9.123a157.952 157.952 0 0 0 11.35-4.345c88.079-42.465 100.026-92.478 135.811-175.996 7.983-18.843 15.91-37.632 23.73-56.475z"/></g></g></svg>