<svg xmlns="http://www.w3.org/2000/svg" width="631" height="830" viewBox="0 0 631 830"><g><g opacity=".03"><path fill="#fff" d="M360.335 486.018c13.69-35.735 1.578-56.48-8.03-91.009-8.631-31.697-22.554-96.438-37.544-122.381-28.17-45.11-56.11-47.802-92.262-82.006-37.87-36.756-54.02-74.347-22.091-121.546 37.22-49.519 107.345-52.396 146.05-4.455 49.009 60.657-27.613 125.305.928 199.885l1.718 4.409c15.918 38.659 33.6 76.668 50.632 114.863 15.872 33.647 47.43 58.894 82.563 70.218 38.705 12.437 64.045 22.833 89.477 56.944 48.498 71.563 36.617 165.078-39.448 210.93-53.464 30.91-102.147 18.796-154.822-5.337-40.98-18.703-64.091-26.917-110.083-24.968-22.648 1.81-49.565 9.468-69.336 20.652-25.71 14.666-46.223 30.399-63.534 54.717-17.821 24.597-35.596 39.958-67.712 29.47C1.08 771.714 32.174 676.25 103.97 696.206c44.367 11.788 68.872 6.172 110.315-7.797a135.001 135.001 0 0 0 9.7-3.712c75.276-36.293 85.486-79.036 116.07-150.413 6.822-16.104 13.598-32.162 20.28-48.266z"/><path fill="none" stroke="#fff" stroke-miterlimit="20" stroke-width="3" d="M360.335 486.018c13.69-35.735 1.578-56.48-8.03-91.009-8.631-31.697-22.554-96.438-37.544-122.381-28.17-45.11-56.11-47.802-92.262-82.006-37.87-36.756-54.02-74.347-22.091-121.546 37.22-49.519 107.345-52.396 146.05-4.455 49.009 60.657-27.613 125.305.928 199.885l1.718 4.409c15.918 38.659 33.6 76.668 50.632 114.863 15.872 33.647 47.43 58.894 82.563 70.218 38.705 12.437 64.045 22.833 89.477 56.944 48.498 71.563 36.617 165.078-39.448 210.93-53.464 30.91-102.147 18.796-154.822-5.337-40.98-18.703-64.091-26.917-110.083-24.968-22.648 1.81-49.565 9.468-69.336 20.652-25.71 14.666-46.223 30.399-63.534 54.717-17.821 24.597-35.596 39.958-67.712 29.47C1.08 771.714 32.174 676.25 103.97 696.206c44.367 11.788 68.872 6.172 110.315-7.797a135.001 135.001 0 0 0 9.7-3.712c75.276-36.293 85.486-79.036 116.07-150.413 6.822-16.104 13.598-32.162 20.28-48.266z"/></g></g></svg>