<?xml version="1.0" encoding="utf-8"?>
<!-- Generator: Adobe Illustrator 24.1.2, SVG Export Plug-In . SVG Version: 6.00 Build 0)  -->
<svg version="1.1" id="Layer_1" xmlns="http://www.w3.org/2000/svg" xmlns:xlink="http://www.w3.org/1999/xlink" x="0px" y="0px"
	 viewBox="0 0 13.5 15" style="enable-background:new 0 0 13.5 15;" xml:space="preserve">
<style type="text/css">
	.st0{fill:#00C4DB;}
</style>
<g>
	<g>
		<path class="st0" d="M8.4,8.5L7.6,9L6.7,9.5L5.9,9L5,8.5v-2L5.9,6l0.8-0.5L7.6,6l0,0l0.8,0.5V8.5z M13,8.2l-2.7,0.9L9.2,8.5v-2
			l1.1-0.6L13,6.8c0.2,0.1,0.4,0,0.5-0.2c0,0,0,0,0,0c0.1-0.2,0-0.4-0.2-0.5c0,0,0,0,0,0l-2.1-0.7l2-1.1c0.2-0.1,0.2-0.3,0.1-0.5
			c-0.1-0.2-0.3-0.2-0.5-0.1l-2,1.1l0.4-2.2c0-0.2-0.1-0.4-0.3-0.4c0,0,0,0,0,0c-0.2,0-0.4,0.1-0.4,0.3c0,0,0,0,0,0L9.9,5.3L8.8,5.9
			L8,5.4l0,0L7.1,4.9V3.6l2.1-1.9c0.2-0.1,0.2-0.3,0-0.5c0,0,0,0,0,0c-0.1-0.2-0.3-0.2-0.5,0c0,0,0,0,0,0L7.1,2.7V0.4
			C7.1,0.2,7,0,6.7,0c0,0,0,0,0,0C6.5,0,6.4,0.2,6.4,0.4c0,0,0,0,0,0v2.3L4.7,1.2c-0.2-0.1-0.4-0.1-0.5,0C4,1.4,4.1,1.6,4.2,1.8
			l2.2,1.9v1.3L5.5,5.4L4.7,5.9L3.6,5.2L3,2.4c0-0.2-0.2-0.3-0.4-0.3c0,0,0,0,0,0c-0.2,0-0.3,0.2-0.3,0.4c0,0,0,0,0,0l0.4,2.2
			l-2-1.1c-0.2-0.1-0.4,0-0.5,0.1c-0.1,0.2,0,0.4,0.1,0.5l2,1.1L0.3,6.1C0.1,6.2-0.1,6.4,0,6.6c0.1,0.2,0.3,0.3,0.5,0.2l2.7-0.9
			l1.1,0.6v2h0L3.2,9.1L0.5,8.2C0.3,8.1,0.1,8.2,0,8.4c0,0,0,0,0,0C0,8.6,0.1,8.8,0.3,8.9c0,0,0,0,0,0l2.1,0.7l-2,1.1
			c-0.2,0.1-0.2,0.3-0.1,0.5c0.1,0.2,0.3,0.2,0.5,0.1l2-1.1l-0.4,2.2c0,0.2,0.1,0.4,0.3,0.4c0,0,0,0,0,0c0.2,0,0.4-0.1,0.4-0.3
			c0,0,0,0,0,0l0.6-2.8l1.1-0.6l0.9,0.5l0.8,0.5v1.3l-2.2,1.9c-0.2,0.1-0.2,0.3,0,0.5c0,0,0,0,0,0c0.1,0.2,0.4,0.2,0.5,0l1.7-1.5
			v2.3c0,0.2,0.2,0.4,0.4,0.4c0.2,0,0.4-0.2,0.4-0.4v-2.3l1.7,1.5c0.2,0.1,0.4,0.1,0.5,0c0.1-0.2,0.1-0.4,0-0.5l-2.2-1.9v-1.3L8,9.6
			l0.8-0.5l1.1,0.6l0.6,2.8c0,0.2,0.2,0.3,0.4,0.3c0,0,0,0,0,0c0.2,0,0.3-0.2,0.3-0.4c0,0,0,0,0,0l-0.4-2.2l2,1.1
			c0.2,0.1,0.4,0,0.5-0.1c0.1-0.2,0-0.4-0.1-0.5l-2-1.1l2.1-0.7c0.2-0.1,0.3-0.3,0.2-0.5C13.4,8.2,13.2,8.1,13,8.2z"/>
	</g>
</g>
</svg>
