<svg xmlns="http://www.w3.org/2000/svg" width="15" height="15" viewBox="0 0 15 15"><g><g><path fill="#00c4db" d="M9.172 8.488l-.843.495-.828.48-.858-.495-.843-.494V6.512l.843-.495.843-.494.843.494.015.015.828.48zm4.579-.29l-2.704.93-1.09-.625V6.512l1.09-.625 2.704.93a.363.363 0 0 0 .465-.233.363.363 0 0 0-.233-.465l-2.093-.712 1.962-1.134a.376.376 0 0 0 .131-.508.376.376 0 0 0-.509-.131l-1.962 1.133.422-2.165a.366.366 0 0 0-.29-.436.366.366 0 0 0-.437.29l-.552 2.806-1.09.625-.829-.48-.014-.015-.843-.494v-1.25l2.15-1.875a.356.356 0 0 0 .03-.523.356.356 0 0 0-.523-.03L7.879 2.675V.378A.375.375 0 0 0 7.5 0a.375.375 0 0 0-.378.378v2.267L5.466 1.206a.382.382 0 0 0-.524.03.382.382 0 0 0 .03.523l2.15 1.875v1.25l-.842.494-.843.494-1.09-.625-.553-2.805a.366.366 0 0 0-.436-.29.366.366 0 0 0-.29.435l.421 2.166-1.962-1.134a.376.376 0 0 0-.509.131.376.376 0 0 0 .13.509l1.963 1.133-2.093.713c-.189.072-.305.276-.232.465.072.189.276.305.465.232l2.703-.93 1.09.625v1.991h.015l-1.09.625-2.704-.93a.363.363 0 0 0-.465.233.363.363 0 0 0 .233.465l2.093.712-1.963 1.134a.376.376 0 0 0-.13.508.376.376 0 0 0 .508.131l1.963-1.133-.422 2.165a.366.366 0 0 0 .29.436.366.366 0 0 0 .437-.29l.552-2.806 1.09-.625.858.495.843.494v1.25L5 13.227a.356.356 0 0 0-.03.523c.131.16.364.174.524.03l1.657-1.454v2.296c0 .204.16.378.378.378.203 0 .378-.16.378-.378v-2.267l1.657 1.453c.16.131.392.116.523-.029a.382.382 0 0 0-.03-.523l-2.18-1.89v-1.25l.844-.494.843-.494 1.09.625.552 2.805a.366.366 0 0 0 .436.29.366.366 0 0 0 .29-.435l-.42-2.166 1.961 1.134a.376.376 0 0 0 .51-.131.376.376 0 0 0-.132-.509L11.89 9.608l2.093-.713c.19-.072.305-.276.233-.465-.073-.189-.276-.305-.465-.232z"/></g></g></svg>