<?xml version="1.0" encoding="utf-8"?>
<!-- Generator: Adobe Illustrator 24.1.2, SVG Export Plug-In . SVG Version: 6.00 Build 0)  -->
<svg version="1.1" id="Layer_1" xmlns="http://www.w3.org/2000/svg" xmlns:xlink="http://www.w3.org/1999/xlink" x="0px" y="0px"
	 viewBox="0 0 217.2 323.4" style="enable-background:new 0 0 217.2 323.4;" xml:space="preserve">
<style type="text/css">
	.st0{fill:#E20015;}
</style>
<g>
	<g transform="rotate(-15 109 162)">
		<path class="st0" d="M106.6,170.6c5.6-14.5,0.6-22.9-3.3-36.9c-3.5-12.9-9.1-39.1-15.2-49.6C76.7,65.8,65.4,64.7,50.7,50.8
			c-15.3-14.9-21.9-30.2-9-49.3c15.1-20.1,43.5-21.3,59.2-1.8c19.9,24.6-11.2,50.8,0.4,81.1l0.7,1.8c6.5,15.7,13.6,31.1,20.5,46.6
			c6.4,13.6,19.2,23.9,33.5,28.5c15.7,5,26,9.3,36.3,23.1c19.7,29,14.8,67-16,85.6c-21.7,12.5-41.4,7.6-62.8-2.2
			c-16.6-7.6-26-10.9-44.6-10.1c-9.2,0.7-20.1,3.8-28.1,8.4c-10.4,5.9-18.7,12.3-25.8,22.2c-7.2,10-14.4,16.2-27.4,12
			c-26.7-10-14.1-48.7,15-40.6c18,4.8,27.9,2.5,44.7-3.2c1.4-0.5,2.6-0.9,3.9-1.5c30.5-14.7,34.7-32.1,47-61
			C101.1,183.7,103.9,177.1,106.6,170.6L106.6,170.6z"/>
	</g>
</g>
</svg>
