<svg xmlns="http://www.w3.org/2000/svg" width="27" height="31" viewBox="0 0 27 31"><g><g><path fill="#fff" d="M21.59 20.778c.024.023.035.04.035.052a1.67 1.67 0 0 1-.31.017c-.55 0-1.262-.16-2.134-.482 1.331 0 2.134.138 2.41.413zm-11.12.276zm0 0c.172-.31.43-.786.775-1.429.643-1.274 1.119-2.404 1.429-3.391.585 1.25 1.314 2.26 2.186 3.03.057.057.15.134.275.232.127.097.201.152.224.163-1.71.31-3.34.775-4.889 1.395zM12.605 9.64c.011-.012.017-.023.017-.035a.99.99 0 0 1 .224.62c0 .011.003.02.008.026.006.005.01.014.01.025 0 .012.005.023.016.035a.387.387 0 0 0-.069.138c-.08.459-.12.705-.12.74-.069.424-.11.677-.12.757-.15-1.033-.138-1.79.034-2.272zM5.753 25.512zm0 0c.15-.344.434-.769.853-1.274a9.813 9.813 0 0 1 1.506-1.446c-.976 1.538-1.762 2.445-2.359 2.72zm9.916-7.075c-1.044-.85-1.882-2.215-2.513-4.097.137-.792.218-1.894.24-3.305v-.517a.448.448 0 0 0-.017-.137.373.373 0 0 0 .07-.138c.103-.54.051-.93-.156-1.17-.137-.173-.338-.259-.602-.259h-.379c-.356 0-.597.23-.723.689-.149.574-.186 1.305-.112 2.195.075.89.25 1.804.525 2.745-.413 1.446-1.01 2.95-1.79 4.51a42.087 42.087 0 0 1-1.842 3.392c0-.023-.011-.046-.034-.069-.104-.172-.236-.207-.396-.103-.976.516-1.733 1.07-2.273 1.66-.54.592-.86 1.117-.964 1.576-.046.298-.011.505.104.62.057.046.091.074.103.086l.413.206c.15.08.31.12.482.12 1.021 0 2.41-1.502 4.166-4.51 1.962-.676 4.212-1.153 6.748-1.428.723.379 1.47.683 2.238.912.769.23 1.429.345 1.98.345.746 0 1.153-.218 1.222-.655v-.017l.034-.034c.012-.012.018-.023.018-.035.16-.344.149-.642-.035-.895-.344-.562-1.36-.843-3.047-.843-.666 0-1.337.04-2.014.12a13.1 13.1 0 0 1-1.446-.964zm8.848 10.208zm0 0H2.483V2.204h13.22v7.161c0 .46.161.85.482 1.17.322.322.712.483 1.171.483h7.161zm-6.61-26.303zm0 0c.333.114.568.24.706.378L24 8.108c.138.138.264.373.379.706h-6.473zm2.272-1.171c-.321-.321-.757-.597-1.308-.826C18.32.115 17.815 0 17.356 0H1.932c-.46 0-.85.161-1.17.482a1.594 1.594 0 0 0-.483 1.171v27.543c0 .46.16.85.482 1.17.322.322.712.483 1.17.483h23.137c.46 0 .85-.16 1.17-.482.322-.321.483-.712.483-1.17V9.364c0-.459-.115-.964-.344-1.515-.23-.55-.505-.987-.827-1.308z"/></g></g></svg>