<?xml version="1.0" encoding="utf-8"?>
<!-- Generator: Adobe Illustrator 24.1.2, SVG Export Plug-In . SVG Version: 6.00 Build 0)  -->
<svg version="1.1" id="Layer_1" xmlns="http://www.w3.org/2000/svg" xmlns:xlink="http://www.w3.org/1999/xlink" x="0px" y="0px"
	 viewBox="0 0 16 16" style="enable-background:new 0 0 16 16;" xml:space="preserve">
<style type="text/css">
	.st0{opacity:0.7;}
	.st1{fill:none;stroke:#000000;stroke-linecap:round;stroke-linejoin:round;stroke-miterlimit:20;}
</style>
<g>
	<g class="st0">
		<path class="st1" d="M15.5,11.7V14c0,0.8-0.7,1.5-1.5,1.5c0,0-0.1,0-0.1,0c-2.3-0.3-4.5-1-6.5-2.3C5.5,12,4,10.5,2.8,8.7
			c-1.3-2-2.1-4.2-2.3-6.5C0.4,1.3,1,0.6,1.9,0.5c0,0,0.1,0,0.1,0h2.3C5,0.5,5.7,1,5.8,1.8C5.9,2.5,6,3.2,6.3,3.9
			C6.5,4.5,6.4,5.1,6,5.5l-1,1C6.1,8.3,7.6,9.9,9.5,11l1-1c0.4-0.4,1-0.5,1.6-0.3c0.7,0.3,1.4,0.4,2.1,0.5
			C14.9,10.3,15.5,11,15.5,11.7z"/>
	</g>
</g>
</svg>
