<svg xmlns="http://www.w3.org/2000/svg" width="37" height="50" viewBox="0 0 37 50"><g><g><path fill="#fff" d="M21.4 29.615c.89-2.322.103-3.67-.52-5.914-.561-2.06-1.465-6.266-2.439-7.952-1.829-2.93-3.643-3.106-5.99-5.328-2.46-2.388-3.508-4.831-1.435-7.898 2.417-3.217 6.97-3.404 9.484-.29 3.182 3.942-1.793 8.143.06 12.989l.111.286c1.034 2.512 2.182 4.982 3.288 7.464 1.03 2.186 3.08 3.826 5.361 4.562 2.514.808 4.16 1.484 5.81 3.7 3.15 4.65 2.378 10.726-2.56 13.706-3.473 2.008-6.634 1.221-10.054-.347-2.661-1.215-4.162-1.749-7.149-1.622-1.47.117-3.218.615-4.502 1.342-1.67.953-3.001 1.975-4.125 3.555-1.158 1.598-2.312 2.596-4.397 1.915-4.27-1.604-2.251-7.807 2.41-6.51 2.882.765 4.473.4 7.164-.507a8.76 8.76 0 0 0 .63-.242c4.888-2.358 5.55-5.135 7.537-9.773.443-1.046.883-2.09 1.317-3.136z"/></g></g></svg>