<svg xmlns="http://www.w3.org/2000/svg" width="65" height="66" viewBox="0 0 65 66"><g><g opacity=".3"><g opacity=".3"><path d="M62.085 23.866l-3.127-.446a3.236 3.236 0 0 0-3.046 5.144l1.895 2.527-3.451 2.589-1.897-2.526a3.236 3.236 0 0 0-5.791 1.483l-.437 3.132-4.27-.61.446-3.128a3.236 3.236 0 0 0-5.144-3.047l-2.527 1.895-2.589-3.451 2.526-1.897a3.236 3.236 0 0 0-1.483-5.791l-3.128-.447.61-4.27 3.129.447a3.236 3.236 0 0 0 3.046-5.145l-1.901-2.53 3.451-2.588 1.896 2.527a3.236 3.236 0 0 0 5.792-1.483l.447-3.127 4.27.609-.447 3.128A3.236 3.236 0 0 0 55.5 9.907l2.527-1.895 2.588 3.45-2.527 1.897a3.236 3.236 0 0 0 1.483 5.792l3.128.446zm-44.02 16.159a4.308 4.308 0 1 1-4.044-5.766h.041a20.427 20.427 0 0 0 4.004 5.766zm1.676 1.52c.589.481 1.204.93 1.843 1.342a5.265 5.265 0 0 1 2.173 2.76l-2.313 2.31-2.24-1.545a2.157 2.157 0 0 0-3.335 1.332l-.566 2.693H12.74l-.565-2.689a2.157 2.157 0 0 0-3.335-1.332l-2.241 1.54-1.966-1.96 1.544-2.24a2.157 2.157 0 0 0-1.331-3.335l-2.689-.566v-2.563l2.689-.566a2.157 2.157 0 0 0 1.332-3.33l-1.545-2.245L6.6 29.19l2.242 1.544a2.157 2.157 0 0 0 3.334-1.333l.188-.897a20.54 20.54 0 0 0 .856 3.657 6.471 6.471 0 1 0 6.522 9.384zm8.586 18.6h8.628v1.078a2.157 2.157 0 0 1-2.157 2.157h-4.314a2.157 2.157 0 0 1-2.157-2.157zm0-4.315h8.628v2.157h-8.628zm35.748-38.215l-.003-.002-4.195-.599a1.079 1.079 0 0 1-.495-1.93l3.39-2.544a1.078 1.078 0 0 0 .216-1.51l-3.883-5.177a1.079 1.079 0 0 0-1.51-.215l-3.39 2.543a1.079 1.079 0 0 1-1.719-1.015l.6-4.196a1.079 1.079 0 0 0-.914-1.22h-.002L45.768.835a1.079 1.079 0 0 0-1.22.914l-.6 4.196a1.079 1.079 0 0 1-1.931.495l-2.542-3.39a1.079 1.079 0 0 0-1.51-.217l-3.241 2.433a20.868 20.868 0 0 0-4.411 0 20.492 20.492 0 0 0-18.07 18.375c-.028.305-.04.608-.054.911h-.324c-.512.001-.952.362-1.055.863l-.745 3.544L7.08 26.9a1.079 1.079 0 0 0-1.376.125L2.47 30.261c-.368.368-.42.946-.125 1.374l2.049 2.98-3.545.745A1.079 1.079 0 0 0 0 36.416v4.314c0 .51.357.951.856 1.056l3.546.746-2.05 2.98a1.079 1.079 0 0 0 .125 1.374l3.236 3.235c.368.368.947.421 1.375.125l2.98-2.054.745 3.545c.103.501.544.862 1.055.863h4.314c.51 0 .951-.357 1.056-.857l.746-3.545 2.98 2.05a1.079 1.079 0 0 0 1.374-.126l1.675-1.68v3.074a4.3 4.3 0 0 0 2.157 3.714v5.993a4.314 4.314 0 0 0 4.314 4.314h4.314a4.314 4.314 0 0 0 4.314-4.314V55.23a4.3 4.3 0 0 0 2.157-3.714v-4.269a5.285 5.285 0 0 1 2.495-4.403c.895-.58 1.744-1.23 2.539-1.941l-1.439-1.607a18.361 18.361 0 0 1-2.272 1.737 7.429 7.429 0 0 0-3.48 6.214v4.269a2.157 2.157 0 0 1-2.157 2.157h-8.628a2.157 2.157 0 0 1-2.157-2.157v-4.359a7.256 7.256 0 0 0-3.421-6.087C14.2 35.7 11.625 24.415 16.996 15.866A18.28 18.28 0 0 1 32.41 7.312c-.016.038-.03.077-.042.117-.04.283.034.57.206.8l2.542 3.39c.268.346.294.823.065 1.196-.22.377-.647.582-1.079.52l-4.195-.6a1.079 1.079 0 0 0-1.22.914l-.001.001-.916 6.406c-.084.59.325 1.136.915 1.22h.001l4.196.6a1.079 1.079 0 0 1 .495 1.93l-3.39 2.543a1.079 1.079 0 0 0-.216 1.51l3.883 5.177a1.078 1.078 0 0 0 1.51.216l3.39-2.542a1.079 1.079 0 0 1 1.715 1.015l-.6 4.195c-.084.59.326 1.136.915 1.221l6.407.916a1.078 1.078 0 0 0 1.22-.916l.6-4.196a1.079 1.079 0 0 1 1.93-.495l2.543 3.39a1.079 1.079 0 0 0 1.51.216l5.177-3.883a1.078 1.078 0 0 0 .216-1.51l-2.542-3.39a1.06 1.06 0 0 1-.065-1.197 1.047 1.047 0 0 1 1.079-.518l4.195.6a1.079 1.079 0 0 0 1.221-.915l.915-6.407a1.079 1.079 0 0 0-.914-1.221z"/></g><g opacity=".3"><path d="M46.377 25.915a6.471 6.471 0 1 1 6.472-6.472 6.479 6.479 0 0 1-6.472 6.472zm0-15.1a8.628 8.628 0 1 0 8.629 8.628 8.638 8.638 0 0 0-8.629-8.628z"/></g><g opacity=".3"><path d="M31.563 51.516v-3.235h2.157v3.235z"/></g><g opacity=".3"><path d="M27.924 37.689c-6.658-2.601-9.947-10.107-7.346-16.765a12.943 12.943 0 0 1 5.16-6.244l-1.152-1.825c-7.056 4.445-9.173 13.768-4.728 20.824a15.1 15.1 0 0 0 7.283 6.017 6.886 6.886 0 0 1 4.422 6.428h2.157a9.024 9.024 0 0 0-5.796-8.435z"/></g><g opacity=".3"><path d="M53.134 42.887V40.73h7.55v2.157z"/></g><g opacity=".3" transform="rotate(-50.201 55.29 49.895)"><path d="M54.213 54.108v-8.424h2.157v8.424z"/></g><g opacity=".3"><path d="M46.662 56.909v-7.55h2.157v7.55z"/></g><g opacity=".3" transform="rotate(-14.035 5.675 19.16)"><path d="M1.23 20.236V18.08h8.893v2.156z"/></g><g opacity=".3" transform="rotate(-54.463 7.295 9.99)"><path d="M6.216 14.63V5.355h2.156v9.277z"/></g><g opacity=".3" transform="rotate(-14.342 14.28 5.135)"><path d="M13.203 9.589V.683h2.157V9.59z"/></g></g></g></svg>