<svg xmlns="http://www.w3.org/2000/svg" width="65" height="61" viewBox="0 0 65 61"><g><g opacity=".3"><g opacity=".3"><path d="M61.741 45.9L43.444 56.466a5.446 5.446 0 0 1-2.722.73H24.413a5.475 5.475 0 0 1-2.434-.575l-2.375-1.192V43.883l6.245-1.561a5.473 5.473 0 0 1 2.731.023L44.83 46.7a2.178 2.178 0 1 1-1.128 4.208l-12.99-3.484a1.09 1.09 0 1 0-.562 2.104l12.987 3.486c.37.099.752.15 1.135.15a4.304 4.304 0 0 0 4.319-4.702L59.56 42.13a2.216 2.216 0 0 1 2.969.797 2.187 2.187 0 0 1-.788 2.974zM17.426 58.28H10.89V40.853h6.535zM2.178 56.1v-13.07h6.535v13.07zm62.24-14.267a4.351 4.351 0 0 0-5.944-1.6l-10.62 6.13a4.317 4.317 0 0 0-2.46-1.774l-16.25-4.356a7.624 7.624 0 0 0-3.822-.033l-5.718 1.436v-1.873a1.09 1.09 0 0 0-1.09-1.089H9.803a1.09 1.09 0 0 0-1.09 1.09v1.089H1.09A1.09 1.09 0 0 0 0 41.943V57.19c0 .602.488 1.09 1.09 1.09h7.623v1.088c0 .602.487 1.09 1.089 1.09h8.713a1.09 1.09 0 0 0 1.089-1.09v-1.505l1.4.7a7.653 7.653 0 0 0 3.41.805h16.311a7.636 7.636 0 0 0 3.812-1.021l18.297-10.565a4.368 4.368 0 0 0 1.584-5.948z"/></g><g opacity=".3"><path d="M30.495 20.16h3.768a1.09 1.09 0 0 0 1.037-.755c.17-.545.39-1.072.66-1.575a1.09 1.09 0 0 0-.186-1.293l-2.665-2.671 3.077-3.078 2.671 2.671c.342.343.87.418 1.294.185.502-.27 1.03-.49 1.575-.658a1.09 1.09 0 0 0 .75-1.037V8.18h4.356v3.769c0 .472.304.891.754 1.037a8.835 8.835 0 0 1 1.575.658 1.09 1.09 0 0 0 1.294-.185l2.672-2.671 3.076 3.078-2.67 2.671a1.09 1.09 0 0 0-.185 1.293c.269.503.49 1.03.659 1.575.144.45.563.756 1.036.756h3.769v4.356h-3.769a1.09 1.09 0 0 0-1.036.756 8.958 8.958 0 0 1-.66 1.575 1.09 1.09 0 0 0 .186 1.292l2.67 2.672-3.076 3.078-2.672-2.672a1.09 1.09 0 0 0-1.294-.185c-.502.27-1.03.49-1.575.659a1.09 1.09 0 0 0-.754 1.037v3.768h-4.357V32.73a1.09 1.09 0 0 0-.755-1.037 8.835 8.835 0 0 1-1.574-.659 1.09 1.09 0 0 0-1.294.185L36.18 33.89l-3.071-3.078 2.67-2.672a1.09 1.09 0 0 0 .185-1.292 8.958 8.958 0 0 1-.658-1.575 1.09 1.09 0 0 0-1.043-.756h-3.768zm-1.09 6.535h4.088c.062.157.124.308.19.455l-2.89 2.892a1.09 1.09 0 0 0 0 1.54L35.41 36.2a1.09 1.09 0 0 0 1.54 0l2.89-2.89c.149.064.3.127.457.189v4.087c0 .602.488 1.09 1.09 1.09h6.534a1.09 1.09 0 0 0 1.089-1.09V33.5c.157-.062.308-.125.456-.19l2.89 2.89a1.12 1.12 0 0 0 1.54 0l4.618-4.617a1.09 1.09 0 0 0 0-1.54l-2.89-2.892c.065-.147.127-.298.19-.455H59.9a1.09 1.09 0 0 0 1.089-1.089v-6.535a1.09 1.09 0 0 0-1.09-1.089h-4.087a12.814 12.814 0 0 0-.189-.456l2.89-2.89a1.09 1.09 0 0 0 0-1.54l-4.617-4.618a1.09 1.09 0 0 0-1.54 0l-2.89 2.89c-.149-.064-.3-.127-.457-.19V7.092a1.09 1.09 0 0 0-1.09-1.089h-6.534a1.09 1.09 0 0 0-1.089 1.09v4.087c-.157.062-.308.125-.456.19l-2.89-2.891a1.12 1.12 0 0 0-1.54 0l-4.619 4.618a1.09 1.09 0 0 0 0 1.54l2.89 2.89c-.065.148-.127.3-.189.456h-4.087a1.09 1.09 0 0 0-1.09 1.09v6.534c0 .602.488 1.09 1.09 1.09z"/></g><g opacity=".3"><path d="M49.01 22.339a4.356 4.356 0 1 1-8.713 0 4.356 4.356 0 0 1 8.713 0zm2.178 0a6.535 6.535 0 1 0-6.535 6.534 6.541 6.541 0 0 0 6.535-6.534z"/></g><g opacity=".3"><path d="M14.158 17.601a1.09 1.09 0 0 0-.78-1.046 2.512 2.512 0 0 1-.435-.183 1.09 1.09 0 0 0-1.275.194l-1.812 1.815-1.542-1.542 1.811-1.811a1.09 1.09 0 0 0 .195-1.276 2.432 2.432 0 0 1-.184-.442 1.09 1.09 0 0 0-1.042-.773h-2.56v-2.178h2.563c.48 0 .903-.314 1.043-.774.046-.153.108-.3.184-.442a1.09 1.09 0 0 0-.195-1.275L8.314 6.057l1.542-1.543 1.815 1.812a1.09 1.09 0 0 0 1.275.195 2.51 2.51 0 0 1 .436-.183 1.09 1.09 0 0 0 .776-1.044v-2.56h2.179v2.56c-.001.483.316.91.78 1.047.15.047.296.108.435.183.422.22.939.142 1.275-.195l1.812-1.815 1.542 1.543-1.811 1.81a1.09 1.09 0 0 0-.195 1.276c.075.141.137.29.184.442.139.46.562.774 1.042.774h2.56v2.178H21.4a1.09 1.09 0 0 0-1.046.773 2.433 2.433 0 0 1-.184.442 1.09 1.09 0 0 0 .195 1.276l1.811 1.81-1.542 1.543-1.81-1.811a1.09 1.09 0 0 0-1.276-.195 2.51 2.51 0 0 1-.436.183 1.09 1.09 0 0 0-.776 1.043v2.56h-2.179zm4.357 3.649v-1.913l1.354 1.354a1.09 1.09 0 0 0 1.54 0l3.082-3.082a1.09 1.09 0 0 0 0-1.54l-1.354-1.354h1.912a1.09 1.09 0 0 0 1.09-1.09V9.27a1.09 1.09 0 0 0-1.09-1.089h-1.912l1.354-1.353a1.09 1.09 0 0 0 0-1.54l-3.082-3.083a1.09 1.09 0 0 0-1.54 0l-1.354 1.354V1.646a1.09 1.09 0 0 0-1.09-1.09H13.07a1.09 1.09 0 0 0-1.089 1.09v1.912l-1.354-1.354a1.09 1.09 0 0 0-1.54 0L6.004 5.287a1.09 1.09 0 0 0 0 1.54L7.358 8.18H5.446a1.09 1.09 0 0 0-1.09 1.09v4.356c0 .601.488 1.089 1.09 1.089h1.912l-1.354 1.354a1.09 1.09 0 0 0 0 1.54l3.082 3.082a1.09 1.09 0 0 0 1.54 0l1.354-1.354v1.913c0 .601.488 1.089 1.09 1.089h4.356a1.09 1.09 0 0 0 1.089-1.09z"/></g><g opacity=".3"><path d="M17.426 11.448a2.178 2.178 0 1 1-4.357 0 2.178 2.178 0 0 1 4.357 0zm2.178 0a4.356 4.356 0 1 0-8.713 0 4.356 4.356 0 0 0 8.713 0z"/></g></g></g></svg>