<svg xmlns="http://www.w3.org/2000/svg" width="182.17" height="246.09" viewBox="0 0 182.17 246.09">
  <path id="Path_38343" data-name="Path 38343" d="M158.137,227.241c4.376-11.428.5-18.063-2.566-29.105-2.759-10.137-7.209-30.842-12-39.138-9-14.426-17.932-15.287-29.487-26.226-12.1-11.755-17.265-23.777-7.06-38.871,11.9-15.836,34.307-16.757,46.677-1.425,15.663,19.4-8.825,40.073.3,63.924l.549,1.41c5.088,12.363,10.739,24.519,16.182,36.734C175.8,205.3,185.889,213.379,197.117,217c12.37,3.978,20.469,7.3,28.6,18.211,15.5,22.886,11.7,52.793-12.607,67.457-17.087,9.885-32.646,6.011-49.48-1.707-13.1-5.981-20.483-8.608-35.182-7.985a57.422,57.422,0,0,0-22.159,6.6c-8.217,4.69-14.773,9.721-20.305,17.5-5.7,7.866-11.376,12.779-21.64,9.425-21.017-7.9-11.08-38.426,11.866-32.044,14.18,3.77,22.011,1.974,35.256-2.493,1.127-.386,2.017-.727,3.1-1.187,24.058-11.606,27.321-25.276,37.1-48.1Q154.926,234.951,158.137,227.241Z" transform="translate(-52.803 -81.484)" fill="#fff" opacity="0.1"/>
</svg>
